<svg viewBox="0 0 64 64" xmlns="http://www.w3.org/2000/svg">
  <!-- gills -->
  <g fill="#ec4899">
    <ellipse cx="15" cy="19.5" rx="6.5" ry="3.1" transform="rotate(-40 15 19.5)"/>
    <ellipse cx="12" cy="27" rx="7" ry="3.1" transform="rotate(-12 12 27)"/>
    <ellipse cx="14" cy="34.5" rx="6.5" ry="3.1" transform="rotate(20 14 34.5)"/>
    <ellipse cx="49" cy="19.5" rx="6.5" ry="3.1" transform="rotate(40 49 19.5)"/>
    <ellipse cx="52" cy="27" rx="7" ry="3.1" transform="rotate(12 52 27)"/>
    <ellipse cx="50" cy="34.5" rx="6.5" ry="3.1" transform="rotate(-20 50 34.5)"/>
  </g>
  <!-- head -->
  <circle cx="32" cy="28" r="15" fill="#f9a8d4"/>
  <!-- face -->
  <circle cx="26.5" cy="26.5" r="2" fill="#47133d"/>
  <circle cx="37.5" cy="26.5" r="2" fill="#47133d"/>
  <circle cx="27.2" cy="25.8" r="0.6" fill="#fff"/>
  <circle cx="38.2" cy="25.8" r="0.6" fill="#fff"/>
  <path d="M28.5 31.5 Q32 34.5 35.5 31.5" stroke="#47133d" stroke-width="1.8" fill="none" stroke-linecap="round"/>
  <circle cx="22.5" cy="30.5" r="2.2" fill="#f472b6" opacity="0.6"/>
  <circle cx="41.5" cy="30.5" r="2.2" fill="#f472b6" opacity="0.6"/>
  <!-- cloud -->
  <g fill="#fff">
    <circle cx="21" cy="47" r="7.5"/>
    <circle cx="32" cy="44.5" r="9.5"/>
    <circle cx="43" cy="47" r="7.5"/>
    <rect x="13.5" y="46" width="37" height="9" rx="4.5"/>
  </g>
  <!-- drizzle -->
  <path d="M8 45.5 C6.2 48.5 5.2 50.4 5.2 51.8 a2.9 2.9 0 0 0 5.8 0 C11 50.4 9.9 48.5 8 45.5 Z" fill="#60a5fa"/>
  <path d="M56 47.5 C54.5 50 53.7 51.6 53.7 52.8 a2.4 2.4 0 0 0 4.8 0 C58.5 51.6 57.6 50 56 47.5 Z" fill="#60a5fa"/>
</svg>
