<svg width="1254" height="1254" viewBox="0 0 1254 1254" fill="none" xmlns="http://www.w3.org/2000/svg">
<path d="M480.864 544.472C485.149 531.019 504.843 509.72 515.286 500.366C591.973 431.674 719.746 426.988 792.071 504.961C795.071 509.469 799.805 515.583 803.307 519.721C810.269 530.419 814.861 537.472 819.931 549.265C822.245 554.939 824.346 560.694 826.244 566.519C829.109 576.471 830.836 586.717 831.393 597.059C831.577 603.822 831.21 609.082 830.763 615.819C829.936 622.867 827.922 640.403 824.254 646.018C822.19 651.4 820.004 656.274 817.886 661.54C810.612 675.342 799.113 691.402 786.566 700.758L787.332 700.899C793.988 702.056 825.65 702.363 828.295 706.526C829.054 707.72 829.085 708.467 829.232 709.833C828.675 714.1 829.801 723.665 830.316 728.33C832.453 747.796 826.85 764.475 823.868 783.107C823.47 784.558 823.182 786.205 821.743 786.934C817.065 789.304 801.188 786.414 795.659 785.513C796.131 788.887 796.976 791.52 797.925 794.765L795.616 795.402C736.174 818.296 672.935 829.71 609.247 829.048C595.851 828.871 582.516 828.332 569.201 826.954C566.108 826.63 562.739 826.201 559.651 826.042L558.958 830.071L558.098 829.71L557.56 829.967C552.648 832.214 547.617 833.353 543.033 835.276C537.875 837.59 525.559 842.617 522.411 835.814C518.06 835.514 512.16 836.304 507.555 836.561C514.113 812.651 511.918 795.739 507.607 771.626C507.044 768.479 506.597 764.591 504.421 763.189C507.257 762.742 506.611 763.238 508.606 761.64C508.332 755.094 517.102 752.939 522.348 750.802C530.463 747.495 536.553 745.408 544.08 740.809L544.482 739.009C515.179 726.12 510.131 724.234 487.157 700.74C486.35 697.74 479.828 688.8 477.703 685.763C477.681 685.689 473.904 677.436 473.521 676.597C470.265 669.488 468.744 664.712 466.865 657.119C464.732 652.435 463.751 645.761 463.472 640.642C461.895 630.404 461.409 624.796 461.586 614.527C462.363 608.104 463.064 601.044 464.258 594.737C466.902 583.051 469.654 574.144 473.435 562.723C474.82 557.034 478.722 550.663 480.864 544.472Z" fill="#FBB5C7"/>
<path d="M723.677 733.272C737.503 728.306 752.81 722.201 765.485 714.7C772.294 710.672 779.562 705.142 786.566 700.758L787.332 700.899C793.988 702.056 825.65 702.363 828.295 706.526C829.054 707.72 829.085 708.467 829.232 709.833C828.675 714.1 829.801 723.665 830.316 728.33C832.453 747.796 826.85 764.475 823.868 783.107C823.47 784.558 823.182 786.205 821.743 786.934C817.065 789.304 801.188 786.414 795.659 785.514C796.131 788.887 796.976 791.52 797.925 794.765L795.616 795.402C736.174 818.296 672.935 829.71 609.247 829.048C595.851 828.871 582.516 828.332 569.201 826.954C566.108 826.63 562.739 826.201 559.651 826.042L558.958 830.071L558.098 829.71L557.56 829.967C552.648 832.214 547.617 833.353 543.033 835.276C537.875 837.59 525.559 842.617 522.411 835.814C518.06 835.514 512.16 836.304 507.555 836.561C514.113 812.651 511.918 795.739 507.607 771.626C507.044 768.479 506.597 764.591 504.421 763.189C507.257 762.742 506.611 763.238 508.606 761.64C508.332 755.094 517.102 752.939 522.348 750.802C530.463 747.496 536.553 745.408 544.08 740.809L544.482 739.009C547.911 737.986 574.383 746.485 579.936 746.197C580.415 746.173 590.233 747.202 590.757 747.367C594.24 747.606 597.993 747.796 601.444 748.114C635.793 750.294 674.717 747.612 707.769 737.521C712.423 736.045 718.374 734.9 723.677 733.272Z" fill="#59A5FA"/>
<path d="M601.444 748.114C635.793 750.294 674.717 747.612 707.769 737.521C703.036 744.722 700.342 747.795 694.403 753.827C673.156 775.392 613.107 785.532 601.444 748.114Z" fill="#F490AB"/>
<path d="M707.769 737.521C712.423 736.045 718.374 734.9 723.677 733.271C719.629 749.13 702.705 765.203 689.131 773.457C659.85 791.263 613.933 793.675 593.568 761.29C592.134 759.013 588.617 750.514 589.422 748.003L590.757 747.367C594.24 747.605 597.993 747.795 601.444 748.114C613.107 785.532 673.155 775.392 694.402 753.827C700.342 747.795 703.036 744.722 707.769 737.521Z" fill="#3281E3"/>
<path d="M508.606 761.64C517.503 769.765 527.502 826.03 522.411 835.814C518.06 835.514 512.16 836.304 507.555 836.561C514.113 812.651 511.918 795.739 507.607 771.626C507.044 768.479 506.597 764.591 504.421 763.189C507.257 762.742 506.611 763.238 508.606 761.64Z" fill="#F490AB"/>
<path d="M560.84 775.325C561.224 791.808 560.07 809.399 559.651 826.042L558.958 830.071L558.099 829.71L557.56 829.967C552.648 832.214 547.617 833.353 543.033 835.275C545.179 824.009 548.016 817.806 551.337 807.134C554.635 796.535 557.29 785.967 560.84 775.325Z" fill="#3281E3"/>
<path d="M768.681 782.054C774.431 782.066 789.193 781.497 794.735 783.334C795.42 783.56 795.445 784.614 795.659 785.514C796.131 788.887 796.976 791.52 797.925 794.766L795.616 795.402C788.385 792.353 776.298 785.74 768.681 782.054Z" fill="#3281E3"/>
<path d="M729.733 553.043C750.533 550.879 765.418 561.858 772.38 581.31C776.978 594.148 776.574 611.033 770.328 623.332C764.591 634.629 757.384 638.885 745.53 642.718C690.459 647.665 684.208 562.813 729.733 553.043Z" fill="#FDFDFC"/>
<path d="M739.229 567.176C773.01 566.085 780.921 620.056 752.884 633.349C747.544 635.878 740.356 634.537 735.176 632.125C721.301 623.663 718.337 611.499 718.08 596.395C718.24 596.497 718.399 596.598 718.552 596.7L719.354 597.188C727.651 602.338 737.68 598.441 737.95 588.409C738.048 585.507 736.958 582.69 734.937 580.602C731.386 576.915 728.312 577.229 723.616 577.163C728.606 571.637 731.82 568.967 739.229 567.176Z" fill="#6D3447"/>
<path d="M560.82 655.387L561.681 656.183C561.423 657.744 560.792 658.246 559.669 659.354C554.03 665.147 543.442 667.871 535.525 667.21C498.096 664.087 489.235 606.702 515.088 584.944C530.613 571.878 551.633 576.198 563.393 591.113C569.833 599.282 574.45 612.715 573.276 623.081L571.993 623.547C571.795 638.554 570.353 643.985 560.82 655.387Z" fill="#FDFDFC"/>
<path d="M526.913 601.741C535.863 592.401 545.759 588.874 557.474 596.698C566.776 602.909 570.226 613.009 571.993 623.547C571.795 638.554 570.353 643.985 560.82 655.386C550.896 662.116 539.706 662.734 530.942 653.568C522.218 644.445 520.569 633.392 520.62 621.281C529.071 626.761 540.063 624.79 540.966 613.976C541.216 611.155 540.312 608.354 538.459 606.212C535.146 602.346 531.562 601.99 526.913 601.741Z" fill="#6D3447"/>
<path d="M671.496 637.391C703.948 635.976 660.407 689.669 608.96 664.516C607.836 663.928 606.737 663.291 605.667 662.612C601.904 660.211 600.708 657.915 599.626 653.537C599.253 652.031 599.55 648.982 600.735 648.051C608.208 641.934 613.425 649.368 620.393 652.062C631.611 656.397 644.775 655.613 655.613 650.396C661.736 647.445 666.659 642.216 671.496 637.391Z" fill="#6D3447"/>
<path d="M795.617 795.402L797.925 794.766C800.007 797.797 801.342 802.052 802.67 805.579C804.403 808.328 806.142 811.941 807.385 814.966C814.016 831.149 826.924 844.019 833.506 860.092C835.073 863.919 829.379 870.226 825.742 871.683C826.826 874.929 827.334 876.435 828.895 879.545C833.861 889.054 836.953 900.566 841.46 910.516C845.336 919.076 848.563 928.058 852.812 936.508C853.81 938.486 852.255 943.611 853.161 945.301C860.558 940.127 870.814 935.124 879.87 934.426C911.801 923.166 918.028 967.699 926.246 988.346C934.138 1008.18 936.845 1055.41 905.397 1055.3C901.319 1058.09 893.818 1057.52 889.379 1055.8C878.376 1051.54 873.318 1041.47 868.634 1031.42L866.27 1024.27C864.887 1021.5 863.086 1019.08 861.329 1016.53C857.894 1012.8 858.108 1014.51 853.847 1016.73C825.87 1031.31 792.837 1028.95 769.183 1007.94L759.093 998.498C753.796 1000.42 744.128 1000.81 738.47 1000.37C735.127 996.869 731.239 990.36 728.588 986.056C723.426 977.655 719.74 972.218 712.931 965.029C702.901 964.484 699.24 964.037 689.112 965.078C672.782 977.202 658.436 995.73 642.32 1008.33C640.22 1009.97 634.403 1009.08 632.058 1008.7C628.739 1007.88 619.842 1004.11 616.542 1002.71C609.405 1014.77 605.333 1023.53 601.387 1037.46C599.744 1043.28 598.827 1050.95 596.624 1056.21C585.064 1047.07 575.572 1048.88 563.484 1041.54C563.001 1039.33 562.243 1035.18 561.605 1033.17C560.006 1028.17 556.498 1023.99 551.841 1021.56C543.886 1017.49 536.148 1019.39 528.249 1021.84C529.878 999.41 534.254 969.701 548.027 951.534L546.476 944.26C552.332 930.869 565.304 920.858 574.8 911.055C572.457 908.734 567.74 904.98 567.011 901.858C562.315 881.756 559.332 857.3 558.991 836.739L558.958 830.071L559.651 826.042C562.739 826.201 566.108 826.63 569.201 826.955C582.516 828.332 595.851 828.871 609.248 829.049C672.935 829.71 736.174 818.297 795.617 795.402Z" fill="#2A4E9F"/>
<path d="M795.616 795.402L797.925 794.766C800.007 797.797 801.342 802.052 802.67 805.579C804.403 808.328 806.142 811.941 807.385 814.966C814.016 831.149 826.924 844.019 833.506 860.092C835.073 863.919 829.379 870.226 825.742 871.683C821.652 873.275 817.917 876.141 814.31 878.694C812.241 879.809 808.689 881.572 806.926 882.889C805.273 883.948 802.615 885.521 801.146 886.673C798.727 887.824 795.623 888.975 794.025 891.02L793.008 891.326C790.228 892.189 786.346 894.149 783.634 895.429C723.695 923.656 655.209 923.203 591.399 910.534C587.632 909.787 583.754 909.175 580.016 908.679C578.329 909.818 576.816 911.189 574.8 911.055C572.457 908.734 567.74 904.98 567.011 901.858C562.315 881.756 559.332 857.3 558.991 836.739L558.958 830.071L559.651 826.042C562.739 826.201 566.108 826.63 569.201 826.955C582.516 828.332 595.851 828.871 609.247 829.049C672.935 829.71 736.174 818.297 795.616 795.402Z" fill="#59A5FA"/>
<path d="M795.616 795.402L797.925 794.766C800.007 797.797 801.342 802.052 802.67 805.579C788.067 810.079 774.645 815.278 759.668 819.509C692.743 838.423 628.053 844.117 558.991 836.739L558.958 830.071L559.651 826.042C562.739 826.201 566.108 826.63 569.201 826.955C582.516 828.332 595.851 828.871 609.247 829.049C672.935 829.71 736.174 818.297 795.616 795.402Z" fill="#FDFDFC"/>
<path d="M548.027 951.533C551.947 947.737 554.101 947.805 559.537 947.854C572.56 947.964 599.561 957.142 608.204 966.853C613.738 970.999 619.126 975.677 624.275 980.293C625.941 981.787 628.366 984.947 629.523 985.896C626.657 989.803 623.081 993.519 619.781 997.107C618.765 998.712 617.179 1001.03 616.542 1002.71C609.405 1014.77 605.333 1023.53 601.387 1037.46C599.744 1043.28 598.827 1050.95 596.624 1056.21C585.064 1047.07 575.572 1048.88 563.484 1041.54C563.001 1039.33 562.243 1035.18 561.605 1033.17C560.006 1028.17 556.498 1023.99 551.841 1021.56C543.886 1017.49 536.148 1019.39 528.249 1021.84C529.878 999.41 534.254 969.701 548.027 951.533Z" fill="#FBB5C7"/>
<path d="M608.204 966.854C613.738 970.999 619.126 975.677 624.275 980.294C625.941 981.788 628.366 984.947 629.523 985.896C626.657 989.803 623.081 993.519 619.781 997.107C618.599 995.313 609.254 970.258 608.204 966.854Z" fill="#F490AB"/>
<path d="M879.87 934.426C911.801 923.166 918.028 967.699 926.245 988.346C934.138 1008.18 936.845 1055.41 905.397 1055.3C901.319 1058.09 893.818 1057.52 889.379 1055.8C878.376 1051.54 873.318 1041.47 868.634 1031.42L866.27 1024.27C864.886 1021.5 863.086 1019.08 861.329 1016.53L861.972 1016.33C861.488 1015.09 861.488 1015.05 861.323 1013.73C864.127 1008.46 869.43 1005.48 874.463 1002.12L874.224 1001.09C877.059 997.659 880.69 992.075 880.684 987.397C880.659 965.176 876.104 952.324 852.297 948.313L851.955 947.817C852.206 947.156 852.861 945.919 853.161 945.301C860.557 940.127 870.814 935.124 879.87 934.426Z" fill="#F6CA47"/>
<path d="M879.87 934.426C911.801 923.166 918.028 967.699 926.246 988.346C934.138 1008.18 936.845 1055.41 905.397 1055.3C932.828 1025.76 918.359 1005.85 907.521 971.507C901.717 953.095 897.069 944.125 879.87 934.426Z" fill="#FDFDFC"/>
<path d="M866.27 1024.27C872.081 1018 888.356 1009.5 896.389 1012.78C897.939 1014.82 897.467 1013.68 897.681 1016.38C895.918 1020.34 889.483 1020.51 884.988 1022.07C878.412 1024.36 874.206 1028.38 868.634 1031.42L866.27 1024.27Z" fill="#FDFDFC"/>
<path d="M874.463 1002.12C878.822 1000.27 889.991 996.269 892.691 1002.36C892.428 1004.64 892.814 1003.59 891.307 1005.53C886.85 1007.07 884.48 1006.9 879.931 1008.97C874.463 1011.47 870.103 1014.6 865.168 1018.07C864.721 1017.99 864.268 1017.92 863.821 1017.85L861.972 1016.33C861.488 1015.09 861.488 1015.05 861.323 1013.73C864.127 1008.46 869.43 1005.48 874.463 1002.12Z" fill="#FDFDFC"/>
<path d="M851.955 947.817L852.298 948.313C876.104 952.323 880.66 965.176 880.684 987.396C880.69 992.074 877.059 997.659 874.224 1001.09L874.463 1002.12C869.43 1005.48 864.127 1008.46 861.323 1013.73C861.488 1015.05 861.488 1015.09 861.972 1016.33L861.329 1016.53C857.894 1012.79 858.108 1014.51 853.847 1016.73C825.87 1031.31 792.837 1028.95 769.183 1007.94L759.093 998.497C760.929 997.426 776.335 993.856 779.807 992.644C796.455 986.839 810.814 978.873 825.417 969.192C828.259 967.417 830.071 966.149 832.441 963.767C834.969 961.98 836.059 961.233 838.251 959.108C840.719 956.818 843.872 954.975 845.691 952.311C849.371 949.091 848.177 948.429 851.955 947.817Z" fill="#FBB5C7"/>
<path d="M851.955 947.817L852.298 948.313C851.881 949.733 850.791 954.369 850.173 955.361C833.09 982.804 801.415 999.434 770.726 1006.89C769.936 1007.08 769.881 1007.33 769.183 1007.94L759.093 998.497C760.929 997.426 776.335 993.856 779.807 992.644C796.455 986.839 810.814 978.873 825.417 969.192C828.259 967.417 830.071 966.149 832.441 963.767C834.969 961.98 836.059 961.233 838.251 959.108C840.719 956.818 843.872 954.975 845.691 952.311C849.371 949.091 848.177 948.429 851.955 947.817Z" fill="#F490AB"/>
<path d="M814.31 878.694C817.917 876.141 821.652 873.275 825.742 871.683C826.826 874.928 827.334 876.435 828.895 879.545C833.861 889.054 836.953 900.566 841.46 910.515C845.336 919.076 848.562 928.058 852.812 936.508C853.81 938.486 852.255 943.611 853.161 945.3C852.861 945.919 852.206 947.156 851.955 947.817C848.177 948.429 849.371 949.091 845.691 952.311C843.872 954.975 840.719 956.818 838.251 959.108C836.059 961.233 834.969 961.98 832.44 963.768C830.071 966.149 828.258 967.417 825.417 969.193L794.024 891.02C795.623 888.975 798.727 887.823 801.146 886.672C802.615 885.521 805.272 883.948 806.926 882.888C808.689 881.572 812.24 879.808 814.31 878.694Z" fill="#FDFDFC"/>
<path d="M814.31 878.694C817.917 876.141 821.652 873.275 825.742 871.683C826.826 874.928 827.334 876.435 828.895 879.545C833.861 889.054 836.953 900.566 841.46 910.515C845.336 919.076 848.562 928.058 852.812 936.508C853.81 938.486 852.255 943.611 853.161 945.3C852.861 945.919 852.206 947.156 851.955 947.817C848.177 948.429 849.371 949.091 845.691 952.311C842.531 946.519 838.949 937.126 836.261 930.924C829.912 916.253 824.199 900.939 817.439 886.47L814.31 878.694Z" fill="#2A4E9F"/>
<path d="M814.31 878.694C817.917 876.141 821.652 873.275 825.742 871.683C826.826 874.928 827.334 876.435 828.895 879.545C825.08 882.509 822.062 885.564 817.439 886.47L814.31 878.694Z" fill="#2A4E9F"/>
<path d="M806.926 882.888C808.689 881.572 812.241 879.808 814.31 878.694L817.439 886.47C824.199 900.939 829.912 916.253 836.261 930.923C838.949 937.126 842.531 946.519 845.691 952.311C843.872 954.975 840.719 956.818 838.251 959.108C836.5 952.311 830.928 939.869 828.038 932.877L806.926 882.888Z" fill="#FDFDFC"/>
<path d="M801.146 886.672C802.615 885.521 805.272 883.947 806.926 882.888L828.038 932.877C830.928 939.869 836.5 952.311 838.251 959.108C836.059 961.233 834.969 961.98 832.44 963.767C827.56 949.997 821.26 935.35 815.786 921.751C811.126 910.185 806.319 897.963 801.146 886.672Z" fill="#2A4E9F"/>
<path d="M629.523 985.896C635.86 990.752 639.234 1000.37 641.928 1007.89C639.001 1007.91 634.574 1007.62 632.058 1008.7C628.739 1007.88 619.842 1004.11 616.542 1002.71C617.179 1001.03 618.764 998.712 619.781 997.108C623.081 993.52 626.657 989.803 629.523 985.896Z" fill="#1D3D80"/>
<path d="M413.012 589.05C392.343 575.101 366.002 548.908 371.718 520.906C372.603 516.571 376.665 510.759 380.86 509.008C408.527 497.459 436.828 518.712 459.566 532.088C466.718 536.293 473.018 541.911 480.864 544.472C478.722 550.663 474.82 557.034 473.435 562.723C469.654 574.144 466.902 583.051 464.258 594.737C463.064 601.044 462.363 608.104 461.586 614.527C461.41 624.796 461.895 630.404 463.473 640.642C463.751 645.761 464.733 652.435 466.865 657.119C468.744 664.712 470.265 669.488 473.522 676.597C473.904 677.436 477.682 685.689 477.704 685.763C479.828 688.8 486.351 697.74 487.157 700.74C481.517 703.471 476.073 706.679 470.295 709.337C454.194 716.801 436.566 720.389 418.828 719.801C402.746 719.195 386.667 712.306 387.957 693.117C389.082 676.388 402.489 669.904 413.677 660.426C394.254 658.754 355.526 645.339 353.759 621.685C351.593 592.707 392.696 589.403 413.012 589.05Z" fill="#EA6789"/>
<path d="M464.258 594.737C460.729 593.667 456.367 591.942 452.818 590.583C429.981 581.835 400.626 563.192 390.284 539.98C388.717 536.464 386.712 530.186 388.608 526.543C389.24 525.327 390.316 524.402 391.613 523.958C408.521 518.307 441.279 541.359 454.083 550.37C460.135 554.629 465.728 559.138 472.642 562.359L473.435 562.723C469.654 574.144 466.902 583.051 464.258 594.737Z" fill="#F490AB"/>
<path d="M463.472 640.642C443.978 645.651 420.67 645.363 401.274 639.834C391.741 637.121 372.178 631.929 371.76 619.469C371.691 617.405 375.95 613.523 377.731 612.85C402.734 600.876 436.272 607.034 461.586 614.527C461.409 624.796 461.895 630.404 463.472 640.642Z" fill="#F490AB"/>
<path d="M477.704 685.763C459.584 692.425 446.26 701.775 425.709 702.062C381.779 702.675 421.5 674.184 437.958 667.596C447.19 663.897 457.888 660.805 466.865 657.119C468.744 664.712 470.265 669.488 473.522 676.597C473.904 677.435 477.682 685.689 477.704 685.763Z" fill="#F490AB"/>
<path d="M792.071 504.961L792.482 504.5C797.233 499.069 801.17 492.786 806.032 487.222C820.831 470.277 840.211 450.09 863.87 447.575C879.404 445.923 888.436 456.598 888.864 471.264C889.465 492.047 878.021 516.254 864.207 531.223C863.791 531.682 863.362 532.136 862.933 532.587C882.252 527.733 921.966 519.727 931.003 547.284C933.269 554.19 930.679 563.312 926.717 569.152C913.381 587.639 899.586 594.362 880.268 603.008C892.63 607.383 911.305 612.856 917.202 625.904C924.641 642.363 914.147 655.742 899.023 661.461C871.334 671.937 845.458 670.058 817.886 661.54C820.005 656.275 822.191 651.401 824.254 646.018C827.922 640.404 829.936 622.867 830.763 615.82C831.21 609.082 831.577 603.823 831.394 597.059C830.836 586.717 829.11 576.472 826.244 566.519C824.346 560.694 822.246 554.939 819.931 549.265C814.861 537.472 810.269 530.42 803.307 519.721C799.805 515.583 795.072 509.47 792.071 504.961Z" fill="#EA6789"/>
<path d="M826.244 566.519C843.866 553.547 882.447 542.964 904.343 546.061C908.929 546.71 914.918 550.754 912.836 555.565C901.87 580.886 855.69 596.994 831.393 597.059C830.836 586.717 829.109 576.471 826.244 566.519Z" fill="#F490AB"/>
<path d="M803.307 519.721C807.213 516.505 811.181 509.016 814.72 504.781C827.34 489.677 844.637 468.399 865.407 466.03C870.379 465.481 872.148 473.743 871.414 477.669C866.527 503.565 848.397 525.572 828.675 542.093C825.515 544.723 822.239 546.06 819.931 549.265C814.861 537.472 810.269 530.419 803.307 519.721Z" fill="#F490AB"/>
<path d="M830.763 615.819C848.054 615.176 865.86 615.917 882.319 621.734C885.974 622.91 895.391 626.688 897.767 629.492C912.45 646.814 867.281 650.972 858.806 650.855C848.869 650.715 833.849 649.208 824.254 646.018C827.922 640.403 829.936 622.867 830.763 615.819Z" fill="#F490AB"/>
<path d="M528.249 1021.84C536.148 1019.39 543.886 1017.49 551.841 1021.56C556.498 1023.99 560.006 1028.17 561.605 1033.17C562.243 1035.18 563.001 1039.33 563.484 1041.54C575.572 1048.88 585.064 1047.07 596.624 1056.21C600.78 1060.42 599.634 1071.21 597.68 1076.33C597.119 1078.75 596.857 1079.96 596.608 1082.42C596.409 1087.52 593.484 1099.08 591.443 1103.92C591.266 1109.7 590.701 1112.51 587.381 1117.34C572.234 1129.71 536.607 1116.42 520.659 1109.43C500.754 1100.71 471.719 1090.48 468.523 1066.11C468.758 1061.26 469.107 1059.62 471.532 1055.43C476.33 1036.48 493.972 1035.2 509.947 1035.58C513.858 1035.35 519.877 1035.37 523.171 1033.78C523.192 1032.91 523.223 1032.03 523.264 1031.16C523.525 1025.7 524.073 1025.65 528.249 1021.84Z" fill="#F6CA47"/>
<path d="M468.523 1066.11C470.928 1065.94 468.993 1066.26 470.767 1065.31C484.223 1058.05 500.172 1066.16 512.368 1072.62C533.658 1083.91 555.325 1094.53 576.66 1105.72C579.845 1107.4 585.527 1113.13 586.542 1116.75L587.381 1117.34C572.234 1129.71 536.607 1116.42 520.659 1109.43C500.754 1100.71 471.719 1090.48 468.523 1066.11Z" fill="#D1D0D0"/>
<path d="M471.532 1055.43C481.405 1051.61 489.293 1051.17 499.341 1054.64C521.161 1062.16 540.263 1075.22 561.134 1084.95C572.111 1075.23 583.149 1068.89 597.68 1076.33C597.119 1078.75 596.857 1079.96 596.608 1082.42C596.409 1087.52 593.484 1099.08 591.443 1103.92C591.266 1109.7 590.701 1112.51 587.381 1117.34L586.542 1116.75C585.527 1113.13 579.845 1107.4 576.66 1105.72C555.325 1094.53 533.658 1083.91 512.368 1072.62C500.172 1066.16 484.223 1058.05 470.767 1065.31C468.993 1066.26 470.928 1065.94 468.523 1066.11C468.758 1061.26 469.107 1059.62 471.532 1055.43Z" fill="#FDFDFC"/>
<path d="M569.681 1089.29C577.662 1080.88 585.979 1080.9 596.608 1082.42C596.409 1087.52 593.484 1099.08 591.443 1103.92C584.636 1097.31 578.437 1093.13 569.681 1089.29Z" fill="#F6CA47"/>
<path d="M509.947 1035.58C513.858 1035.35 519.877 1035.37 523.171 1033.78C532.594 1034.53 542.413 1038.96 544.431 1049.85C544.67 1051.14 543.572 1051.83 542.699 1052.42C541.51 1052.42 540.169 1052.56 539.367 1051.6C532.607 1043.43 529.289 1037.8 518.443 1034.18C523.396 1037.5 534.928 1047.18 531.997 1053.84C525.673 1055.72 522.096 1045.33 518.183 1041.81C515.773 1039.64 511.811 1038.02 509.947 1035.58Z" fill="#FDFDFC"/>
<path d="M829.232 709.833C853.528 714.315 873.293 724.773 887.615 746.044C902.445 768.069 919.639 801.256 916.136 828.999C913.479 846.842 889.532 861.562 873.153 851.881C871.009 850.614 866.472 845.568 864.991 844.999C850.363 839.372 846.566 828.283 850.491 812.449C844.901 798.035 838.221 789.444 823.868 783.107C826.85 764.475 832.453 747.795 830.316 728.33C829.801 723.664 828.675 714.1 829.232 709.833Z" fill="#FBB5C7"/>
<path d="M507.555 836.561C505.226 836.794 502.7 836.322 500.319 836.059C472.158 832.912 451.768 817.108 434.556 795.831C425.333 784.436 419.075 768.522 421.181 753.827C422.345 744.324 426.468 737.319 433.964 731.269C444.628 721.491 472.406 729.139 476.673 742.891C480.356 754.763 490.659 762.123 503.506 763.121L504.422 763.189C506.597 764.591 507.044 768.479 507.607 771.626C511.919 795.739 514.113 812.651 507.555 836.561Z" fill="#FBB5C7"/>
</svg>
