<svg width="1254" height="1254" viewBox="0 0 1254 1254" fill="none" xmlns="http://www.w3.org/2000/svg">
<path d="M473.029 548.219C476.762 543.313 480.283 536.183 484.204 530.797C551.276 438.668 695.639 415.859 788.085 482.355C798.47 489.828 806.926 496.538 814.831 506.79L817.396 506.877C824.493 506.913 834.786 507.251 841.625 506.784C843.419 507.747 844.013 507.72 844.607 510.229C845.979 516.009 846.07 522.863 846.689 528.828C843.395 531.513 840.327 533.531 837.859 536.921C842.746 542.445 843.958 548.719 847.136 554.761C849.518 560.628 851.502 566.636 853.553 572.627C855.904 580.088 858.463 598.402 858.99 606.359C859.045 613.352 858.77 619.383 858.39 626.351C856.388 640.189 855.935 645.761 851.11 658.803C848.783 664.516 846.211 670.345 843.958 676.027C834.241 695.443 823.942 705.344 808.328 719.519C818.431 731.765 829.673 742.481 839.121 755.633C844.766 763.489 851.74 775.827 858.598 782.029C863.209 783.927 868.132 786.965 872.626 788.63C911.446 802.719 941.817 764.873 962.31 737.398C978.334 715.931 1000.28 663.046 1034.81 676.56C1052.01 683.283 1053.12 713.39 1056.23 729.028C1057.8 736.964 1058.53 746.669 1059.75 754.819C1063.09 797.019 1059.25 842.666 1041.83 881.688C1018.41 934.15 976.001 967.858 923.49 988.817C901.46 997.61 877.139 1001.05 853.712 1001.94C847.742 1002.17 829.483 999.44 825.754 1000.87C821.731 1010.1 816.968 1025.89 806.252 1029.67C783.707 1037.62 759.05 1037.11 735.268 1035.46C713.727 1033.97 696.827 1021.39 712.57 999.195C714.731 996.14 717.419 993.366 719.599 990.201C697.648 990.525 667.161 989.313 646.569 981.083C642.234 993.77 643.489 1007.93 631.329 1018.24C616.768 1030.58 587.422 1028.61 569.124 1028.71C559.111 1028.76 535.822 1025.62 529.516 1017.6C520.253 1005.83 529.404 992.674 538.778 984.408C540.142 969.346 539.159 958.453 542.588 942.074C544.215 934.297 549.481 920.184 550.06 915.077C538.987 896.506 532.629 875.51 531.537 853.914C526.543 854.985 522.424 855.598 517.222 856.112C488.589 858.929 431.285 848.011 429.299 811.267C427.127 771.094 476.685 777.437 502.432 771.136C512.319 768.718 526.63 764.119 533.507 755.645C529.961 753.294 524.051 750.643 520.148 748.322C506.945 740.472 491.261 729.494 482.053 717.199C481.305 714.29 474.099 704.426 471.894 701.009C467.305 691.482 461.656 681.415 458.617 671.361C457.387 665.489 456.124 659.63 454.828 653.77C454.51 649.251 453.729 642.179 454.211 637.856C454.522 635.076 454.595 634.476 454.642 631.543C454.818 633.098 455.261 633.576 456.047 634.941L457.133 635.444C457.032 634.635 453.919 625.843 453.382 624.226C450.986 616.493 448.999 607.287 446.825 599.27C443.923 591.671 438.135 589.474 431.204 585.939C430.219 579.38 429.116 572.682 428.471 566.094C434.518 563.067 445.195 560.219 451.945 558.205C458.191 556.158 467.418 554.095 473.849 552.729C473.552 551.844 473.202 549.27 473.029 548.219Z" fill="#FAB4C6"/>
<path d="M473.029 548.219C476.762 543.313 480.283 536.183 484.204 530.797C551.276 438.668 695.639 415.859 788.085 482.355C798.47 489.828 806.926 496.538 814.831 506.79L817.396 506.877C824.493 506.913 834.786 507.251 841.625 506.784C843.419 507.747 844.013 507.72 844.607 510.229C845.979 516.009 846.07 522.863 846.689 528.828C843.395 531.513 840.327 533.531 837.859 536.921L837.498 537.688C833.23 546.997 835.722 559.339 835.631 569.571C835.245 613.554 817.555 636.956 775.459 647.414C763.036 650.439 754.243 650.984 741.666 651.082C698.346 649.943 676.119 621.097 662.691 583.25C649.153 573.86 631.709 574.874 621.477 588.699C621.085 637.072 598.158 670.345 549.237 678.164C505.399 685.169 476.886 677.435 457.133 635.444C457.032 634.635 453.919 625.843 453.382 624.226C450.986 616.493 448.999 607.287 446.825 599.27C443.923 591.671 438.135 589.474 431.204 585.939C430.219 579.38 429.116 572.682 428.471 566.094C434.518 563.067 445.195 560.219 451.945 558.205C458.191 556.158 467.418 554.095 473.849 552.729C473.552 551.844 473.202 549.27 473.029 548.219Z" fill="#282626"/>
<path d="M473.029 548.219C476.762 543.313 480.283 536.183 484.204 530.797C551.276 438.668 695.639 415.859 788.085 482.355C798.47 489.828 806.926 496.538 814.831 506.79C777.357 508.619 697.36 514.167 668.324 542.205C662.814 547.528 660.909 555.208 660.371 562.742C646.404 559.021 634.752 559.128 621.936 566.524C620.969 567.07 620.02 567.638 619.077 568.225C615.244 558.06 611.207 552.517 600.846 547.883C573.02 535.435 502.084 544.57 473.848 552.729C473.552 551.844 473.202 549.27 473.029 548.219Z" fill="#FAB4C6"/>
<path d="M545.54 554.391C547.499 554.179 547.949 554.242 549.865 554.368L550.417 555.096C544.658 569.618 537.884 583.774 531.606 598.066C521.867 620.461 511.984 642.791 501.956 665.055C496.459 662.801 492.589 660.744 487.723 657.438C481.636 652.068 479.802 649.827 475.172 643.122C481.456 630.545 486.887 616.915 492.847 604.192C500.288 588.307 506.836 573.502 513.411 557.269C523.642 555.992 535.177 555.261 545.54 554.391Z" fill="#6F6E6E"/>
<path d="M765.118 523.754C767.23 523.444 767.297 523.337 769.477 523.739C768.712 527.657 753.612 560.166 751.249 565.114C740.534 587.566 730.339 613.058 719.495 635.248C714.303 633.16 710.757 631.188 706.012 628.28C699.644 624.067 697.421 621.446 692.419 615.556C694.323 612.282 695.609 609.308 697.182 605.92C709.11 580.25 720.444 554.23 732.439 528.601C743.656 526.753 753.802 525.136 765.118 523.754Z" fill="#6F6E6E"/>
<path d="M788.049 521.434C796.902 521.843 803.436 522.21 812.228 523.148L775.57 605.207C772.729 611.528 763.483 634.066 760.348 637.985C752.743 638.836 743.32 638.634 735.556 638.67C742.438 622.34 751.298 604.335 758.658 588.076L788.049 521.434Z" fill="#6F6E6E"/>
<path d="M567.997 553.61C577.734 554.112 582.741 554.784 592.227 557.013C589.935 564.307 585.636 572.777 582.461 579.86L567.922 612.452C562.819 623.761 557.788 635.095 552.829 646.465C551.176 650.255 545.236 665.434 542.706 667.247C533.941 668.128 526.53 668.22 517.815 668.184C529.579 640.22 542.978 612.758 554.575 584.684C558.689 574.724 564.811 563.897 567.997 553.61Z" fill="#6F6E6E"/>
<path d="M887.597 853.149C948.656 848.85 978.469 787.95 1003.65 740.607C1006.05 736.094 1014.06 730.002 1018.58 735.059C1024.17 741.305 1022.68 753.569 1022.95 761.395C1021.53 818.168 1002.45 869.056 960.614 908.305C932.381 934.793 892.152 954.822 853.155 956.463C850.418 956.322 846.187 956.677 843.339 956.836C869.656 937.261 886.795 898.214 885.319 865.799C885.221 863.588 884.805 855.445 885.454 853.773L887.597 853.149Z" fill="#EB688B"/>
<path d="M533.507 755.645C536.126 755.602 548.642 760.519 552.356 761.615C540.328 787.283 532.348 815.088 531.842 843.517C531.782 846.915 531.744 850.534 531.537 853.914C526.543 854.985 522.424 855.598 517.222 856.112C488.589 858.929 431.285 848.011 429.299 811.267C427.127 771.094 476.685 777.437 502.432 771.137C512.319 768.718 526.63 764.119 533.507 755.645Z" fill="#F58FAA"/>
<path d="M550.06 915.077C570.477 941.284 586.651 955.581 617.828 969.597C626.143 973.338 639.197 977.41 646.569 981.084C642.234 993.771 643.489 1007.93 631.329 1018.24C616.768 1030.58 587.422 1028.61 569.124 1028.71C559.111 1028.76 535.822 1025.62 529.516 1017.6C520.253 1005.83 529.404 992.675 538.778 984.408C540.142 969.346 539.159 958.453 542.588 942.074C544.215 934.297 549.481 920.184 550.06 915.077Z" fill="#F58FAA"/>
<path d="M780.095 737.423C790.228 732.372 799.051 724.142 808.328 719.519C818.431 731.765 829.673 742.481 839.121 755.633C844.766 763.489 851.74 775.827 858.598 782.029C857.594 785.697 862.731 794.184 864.874 797.98C875.277 816.386 880.408 831.883 884.505 852.536C885.797 852.849 886.28 852.977 887.597 853.149L885.454 853.773C884.805 855.445 885.221 863.588 885.319 865.799C886.795 898.214 869.656 937.261 843.339 956.836C846.187 956.677 850.418 956.322 853.155 956.463C850.271 957.198 846.977 957.13 843.958 957.228C840.529 959.494 835.747 963.455 832.342 966.076C834.786 956.157 837.18 937.726 838.876 926.925C793.602 933.354 784.258 887.285 775.668 854.275C771.853 839.623 766.03 824.358 760.335 810.312C772.753 823.678 776.806 827.567 786.426 843.689C798.415 863.766 799.621 893.702 819.129 906.199C825.466 910.093 832.887 910.944 839.935 909.119C868.003 901.864 870.642 867.826 864.599 844.056C853.871 801.838 817.568 759.142 780.095 737.423Z" fill="#F58FAA"/>
<path d="M741.666 651.082C754.243 650.984 763.036 650.439 775.459 647.414C765.185 661.681 754.047 651.774 742.487 651.627L741.666 651.082Z" fill="#F58FAA"/>
<path d="M632.358 834.761C645.871 834.4 661.148 835.128 674.815 834.988C677.846 835.104 681.311 835.649 683.154 838.361C689.743 848.054 680.117 860.557 672.898 866.344C670.957 867.415 668.967 868.407 666.947 869.32C659.14 872.785 651.455 872.828 643.508 869.589C635.946 866.57 629.945 860.606 626.884 853.063C623.945 845.831 623.902 837.676 632.358 834.761Z" fill="#F58FAA"/>
<path d="M683.712 647.898C719.397 646.655 667.877 706.642 614.436 677.791C608.54 674.79 603.636 670.308 604.599 662.624C604.773 661.228 606.065 659.55 607.394 658.821C616.891 653.623 625.751 665.998 635.664 666.42C647.782 668.643 662.795 665.661 672.727 658.258C676.425 655.497 678.972 650.813 683.712 647.898Z" fill="#6A3043"/>
<path d="M641.45 793.186C645.577 793.039 650.17 793.253 654.315 793.02C663.83 792.482 686.357 792.653 676.603 808.383C674.386 811.953 673.719 812.388 669.524 813.459C659.452 813.398 649.098 813.545 639.068 813.006C630.49 806.614 629.768 795.996 641.45 793.186Z" fill="#F58FAA"/>
<path d="M817.396 506.877C825.087 484.834 895.214 414.959 919.302 457.34C925.205 467.723 921.371 489.251 917.006 499.475C911.52 513.261 902.831 526.685 892.544 537.256C908.917 532.222 920.594 529.808 938.449 531.349C962.347 533.412 977.226 551.137 964.172 574.287C957.002 587.005 941.253 599.233 928.205 605.564C925.149 606.999 915.346 611.122 913.332 612.543C914.434 614.913 920.441 614.993 923.117 615.721C956.138 624.716 971.636 659.47 932.736 675.886C908.213 686.24 868.842 686.344 843.958 676.027C846.211 670.345 848.783 664.516 851.11 658.803C855.934 645.761 856.388 640.189 858.39 626.351C858.769 619.383 859.045 613.352 858.99 606.359C858.463 598.402 855.904 580.088 853.553 572.627C851.501 566.636 849.518 560.628 847.136 554.761C843.958 548.719 842.745 542.445 837.859 536.921C840.327 533.531 843.395 531.513 846.689 528.829C846.07 522.863 845.978 516.009 844.607 510.229C844.013 507.72 843.419 507.747 841.625 506.784C834.785 507.251 824.493 506.914 817.396 506.877Z" fill="#EB688B"/>
<path d="M853.553 572.627C858.17 569.44 863.986 567.298 869.32 564.914C891.558 554.973 916.283 548.26 940.794 551.261C943.617 551.606 947.046 553.166 948.484 555.67C949.654 557.701 949.709 561.105 948.576 563.118C938.914 580.308 915.769 591.632 898.159 598.254C887.732 602.176 868.964 606.486 858.99 606.359C858.463 598.402 855.904 580.088 853.553 572.627Z" fill="#F58FAA"/>
<path d="M841.625 506.784C844.423 492.671 917.606 430.952 901.19 486.4C895.728 504.842 879.386 525.937 865.309 538.98C859.829 543.965 851.648 549.798 847.136 554.761C843.958 548.719 842.746 542.445 837.859 536.921C840.327 533.531 843.395 531.513 846.689 528.829C846.07 522.863 845.979 516.009 844.607 510.229C844.013 507.72 843.419 507.747 841.625 506.784Z" fill="#F58FAA"/>
<path d="M858.39 626.351C879.165 625.561 898.778 626.235 918.408 634.084C924.464 636.656 934.72 640.054 935.271 647.812C935.436 650.065 933.318 653.243 931.499 654.352C907.76 668.778 876.606 664.736 851.11 658.803C855.935 645.761 856.388 640.189 858.39 626.351Z" fill="#F58FAA"/>
<path d="M401.679 674.974C379.887 670.89 342.574 661.65 335.809 636.528C331.043 618.832 343.461 608.587 358.367 602.892C371.111 598.022 383.958 598.994 396.772 595.953C396.972 594.3 395.734 593.236 394.437 592.229C374.939 577.096 357.176 559.092 353.695 533.403C351.674 518.479 360.592 506.495 376.226 505.567C403.506 503.945 427.877 519.296 450.245 532.965C457.714 537.548 466.331 542.737 473.029 548.219C473.202 549.27 473.552 551.845 473.848 552.729C467.417 554.095 458.191 556.158 451.945 558.205C445.195 560.219 434.518 563.067 428.471 566.094C429.116 572.683 430.219 579.38 431.204 585.939C438.135 589.474 443.923 591.671 446.824 599.271C448.999 607.287 450.986 616.493 453.382 624.226C453.919 625.843 457.032 634.636 457.133 635.444L456.047 634.942C455.261 633.576 454.817 633.099 454.642 631.543C454.595 634.476 454.522 635.076 454.211 637.856C453.729 642.179 454.51 649.251 454.828 653.77C456.124 659.63 457.387 665.489 458.617 671.361C461.656 681.416 467.305 691.482 471.893 701.009C474.099 704.426 481.304 714.29 482.053 717.199C481.035 718.264 480.657 718.613 479.317 719.427C456.907 733.014 421.566 743.295 395.194 738.176C388.365 736.658 378.279 732.69 375.079 726.053C364.228 703.544 384.585 684.379 401.679 674.974Z" fill="#EB688B"/>
<path d="M454.828 653.77C448.471 654.303 441.389 655.938 434.897 656.538C416.678 658.234 396.047 655.962 378.827 649.704C370.943 646.441 358.814 641.322 354.974 633.307C352.022 627.147 360.712 622.059 365.726 620.406C388.217 612.997 415.397 615.225 438.226 620.13C443.332 621.226 448.705 622.102 453.382 624.226C453.919 625.843 457.032 634.636 457.133 635.444L456.047 634.942C455.261 633.576 454.817 633.099 454.642 631.543C454.595 634.476 454.522 635.076 454.211 637.856C453.729 642.179 454.51 649.251 454.828 653.77Z" fill="#F58FAA"/>
<path d="M446.824 599.271C443.876 598.878 434.73 594.803 431.735 593.297C409.77 582.25 381.7 562.966 373.465 538.756C372.515 536.73 370.818 529.511 372.804 527.688C388.464 513.313 441.515 550.016 451.945 558.205C445.195 560.219 434.518 563.067 428.471 566.094C429.116 572.682 430.219 579.38 431.204 585.939C438.135 589.474 443.923 591.671 446.824 599.271Z" fill="#F58FAA"/>
<path d="M458.617 671.361C461.656 681.415 467.305 691.482 471.893 701.009C453.567 712.961 420.983 723.45 399.202 719.011C384.324 715.98 394.578 703.612 401.36 698.119C412.59 689.02 425.137 683.62 438.345 678.109C444.624 675.574 451.665 674.221 458.113 671.57L458.617 671.361Z" fill="#F58FAA"/>
</svg>
