<svg width="1254" height="1254" viewBox="0 0 1254 1254" fill="none" xmlns="http://www.w3.org/2000/svg">
<path d="M461.982 154.262C474.471 154.625 490.115 151.714 504.916 152.458C512.87 152.505 521.843 152.729 529.702 152.373C553.543 155.158 568.702 155.316 593.907 160.301C676.793 175.993 751.353 220.769 804.152 286.562C825.87 313.681 842.88 344.249 854.49 376.993C856.731 383.316 860.147 393.217 860.502 399.757C860.472 401.91 860.637 401.865 859.364 403.544C854.318 406.453 839.415 400.249 832.514 399.347C803.693 395.582 776.562 401.258 751.175 415.345C743.24 419.614 716.25 438.991 713.311 446.419C743.001 452.112 776.837 469.764 798.984 490.029C804.458 495.035 808.53 498.047 813.428 503.867C814.727 506.728 822.135 515.032 824.658 518.598C832.379 529.317 837.492 538.45 843.291 550.295C845.397 556.175 847.424 562.086 849.371 568.023C855.139 588.797 855.384 592.345 855.457 613.688L855.182 620.418C854.165 629.835 851.71 645.835 847.473 654.052C845.183 660.567 843.358 665.649 840.235 671.919C827.162 693.521 822.503 698.554 804.14 715.747C806.479 719.991 810.716 723.181 813.912 726.873C823.734 738.237 833.224 750.128 841.925 762.374C845.813 767.842 848.562 773.733 854.153 777.805C854.171 777.829 854.19 777.86 854.208 777.884C869.387 786.352 880.831 791.287 898.606 786.438C927.25 778.625 944.854 754.47 961.043 731.422C975.946 710.157 999.594 658.748 1032.61 673.86C1047.85 680.84 1049.58 710.824 1052.34 725.887C1062.59 781.944 1058.52 841.258 1030.9 892.018C993.311 959.31 912.475 1003.17 835.612 997.463C833.818 997.555 822.662 995.424 821.719 997.169C817.029 1005.83 813.153 1020.61 803.074 1025C784.362 1033.15 758.964 1033.5 739.046 1032.03C718.65 1030.53 692.884 1026.33 706.655 999.287C708.59 995.479 713.623 991.242 715.19 987.513C713.053 985.945 700.47 986.515 696.711 986.294C681.367 985.406 656.042 982.296 641.812 976.944C640.801 986.398 635.431 1005.16 628.892 1012.19C614.962 1027.19 581.683 1025.26 562.929 1024.81C548.591 1024.46 521.54 1023.06 519.806 1005.02C518.74 993.911 527.412 988.174 533.805 981.304C534.011 970.374 533.636 960.265 535.254 949.384C537.244 935.993 540.775 924.494 545.037 911.715C543.515 909.597 541.494 904.741 540.251 902.304C532.815 887.713 527.456 867.581 526.445 851.042C524.974 849.475 520.52 850.846 518.152 851.25C504.533 853.553 493.05 851.348 479.989 848.177C477.922 846.309 479.415 811.004 478.491 804.997C478.564 804.317 478.474 804.727 478.849 803.919C481.891 797.337 482.504 795.163 482 788.41C492.819 779.415 495.261 767.108 483.363 757.684L479.253 746.381C471.868 736.168 464.278 734.08 452.692 731.698C453.001 728.581 453.027 727.614 453.949 724.693C449.712 725.563 447.604 727.014 443.705 728.177C436.992 730.265 431.492 731.557 424.505 732.984C406.011 736.768 372.661 738.133 367.525 713.886C364.573 699.95 375.501 686.522 385.833 678.752C389.136 676.266 391.93 674.582 394.445 670.939C374.797 664.369 348.381 660.683 335.82 642.344C309.861 604.433 371.753 589.534 396.429 593.579C377.019 577.434 356.908 562.156 349.568 536.749C345.288 521.937 351.176 504.455 367.655 501.883C397.072 497.294 431.759 519.756 454.855 535.53C455.016 518.67 453.742 495.144 454.634 479.174C448.13 478.572 421.293 465.478 412.843 462.412C381.23 450.256 343.538 446.831 311.246 457.861C288.952 467.493 294.784 469.323 275.214 455.896C241.176 432.541 195.069 424.714 155.804 439.063C150.053 441.165 141.684 446.129 136.655 446.011C134.57 445.17 134.692 445.276 133.315 443.503C131.855 435.737 134.376 421.648 136.045 413.892C145.642 369.285 167.599 328.44 195.15 292.407C202.799 282.402 212.151 273.101 220.723 263.9C278.504 202.522 358.776 166.314 441.77 155.651C448.06 154.843 454.549 154.674 460.888 153.882L461.982 154.262ZM481.252 522.079C486.21 517.593 492.012 509.831 497.511 504.576C523.72 479.536 545.458 468.002 578.177 454.063C575.661 451.167 554.261 450.578 550.115 450.817C530.222 451.96 498.474 456.584 480.97 465.948C481.443 470.606 481.467 475.971 481.364 480.683C481.064 494.337 481.82 508.462 481.252 522.079ZM480.269 737.031C487.081 742.658 493.587 747.587 494.693 757.323C495.097 760.88 493.929 763.464 495.554 766.22C502.483 769.747 524.784 757.286 529.8 751.953C518.958 747.318 486.275 726.438 480.728 717.168C479.366 721.087 480.071 732.298 480.269 737.031Z" fill="#FCB5C9"/>
<path d="M461.982 154.262C474.471 154.625 490.115 151.714 504.916 152.458C512.87 152.505 521.843 152.729 529.702 152.373C553.543 155.158 568.702 155.316 593.907 160.301C676.793 175.993 751.353 220.769 804.152 286.562C825.87 313.681 842.88 344.249 854.49 376.993C856.731 383.316 860.147 393.217 860.502 399.757C856.131 398.851 841.509 388.281 836.01 385.464C781.852 357.709 715.986 354.016 659.905 378.395C655.27 380.41 644.077 386.862 639.926 387.476C629.119 384.247 616.775 378.649 604.762 374.98C563.198 362.289 524.438 360.123 481.25 362.397C472.588 362.855 463.954 363.742 455.381 365.056L455.07 439.081C455.04 448.062 455.535 471.007 454.634 479.174C448.13 478.572 421.293 465.478 412.843 462.412C381.23 450.256 343.538 446.831 311.246 457.861C288.952 467.493 294.784 469.323 275.214 455.896C241.176 432.541 195.069 424.714 155.804 439.063C150.053 441.165 141.684 446.129 136.655 446.011C134.57 445.17 134.692 445.276 133.315 443.503C131.855 435.737 134.376 421.648 136.045 413.892C145.642 369.285 167.599 328.44 195.15 292.407C202.799 282.402 212.151 273.101 220.723 263.9C278.504 202.522 358.776 166.314 441.77 155.651C448.06 154.843 454.549 154.674 460.888 153.882L461.982 154.262Z" fill="#84BDFB"/>
<path d="M460.888 153.882L461.982 154.262C458.505 157.556 452.779 159.995 448.63 162.9C379.851 211.071 339.167 307.285 332.687 388.813C332.261 394.36 331.948 399.915 331.749 405.474C340.961 401.651 352.894 394.883 363.016 390.452C392.512 377.843 423.584 369.3 455.381 365.056L455.07 439.081C455.04 448.063 455.535 471.007 454.634 479.174C448.13 478.572 421.293 465.478 412.843 462.413C381.23 450.256 343.538 446.831 311.246 457.861C288.952 467.493 294.784 469.323 275.214 455.896C241.176 432.541 195.069 424.714 155.804 439.064C150.053 441.166 141.684 446.129 136.655 446.011C134.57 445.17 134.692 445.276 133.315 443.503C131.855 435.737 134.376 421.648 136.045 413.892C145.642 369.285 167.599 328.44 195.15 292.407C202.799 282.402 212.151 273.101 220.723 263.9C278.504 202.522 358.776 166.314 441.77 155.652C448.06 154.843 454.549 154.674 460.888 153.882Z" fill="#57A6FB"/>
<path d="M331.749 405.474C340.961 401.651 352.894 394.883 363.016 390.452C392.512 377.843 423.584 369.3 455.381 365.056L455.07 439.081C455.04 448.063 455.535 471.007 454.634 479.174C448.13 478.572 421.293 465.478 412.843 462.412C381.23 450.256 343.538 446.831 311.246 457.861C288.951 467.493 294.784 469.323 275.214 455.896C241.176 432.541 195.068 424.714 155.804 439.063C150.052 441.166 141.684 446.129 136.655 446.011C134.57 445.17 134.692 445.276 133.314 443.503C140.776 430.116 166.203 412.347 180.027 405.588C216.363 387.915 257.795 383.728 296.931 393.775C310.685 397.271 318.84 401.05 331.749 405.474Z" fill="#3086EC"/>
<path d="M529.702 152.373C553.543 155.158 568.702 155.316 593.907 160.301C676.792 175.994 751.353 220.769 804.152 286.562C825.87 313.681 842.88 344.249 854.489 376.994C856.73 383.316 860.147 393.217 860.502 399.757C856.13 398.851 841.508 388.281 836.01 385.464C781.852 357.709 715.986 354.016 659.905 378.395C655.27 380.41 644.077 386.862 639.925 387.476C640.728 383.782 635.958 357.549 634.984 353.193C618.55 279.578 581.186 202.276 515.88 160.514C512.076 158.081 507.944 155.73 504.916 152.458C512.87 152.505 521.843 152.729 529.702 152.373Z" fill="#57A6FB"/>
<path d="M481.25 362.397C524.438 360.123 563.198 362.289 604.762 374.98C616.774 378.649 629.118 384.247 639.926 387.476C644.077 386.862 655.27 380.41 659.905 378.395C715.986 354.016 781.852 357.709 836.01 385.464C841.509 388.281 856.13 398.851 860.502 399.757C860.472 401.91 860.637 401.865 859.363 403.544C854.318 406.453 839.414 400.249 832.514 399.347C803.693 395.583 776.561 401.258 751.175 415.345C743.24 419.614 716.249 438.991 713.31 446.419C672.17 438.721 646.79 436.423 604.923 446.728C596.06 448.91 586.921 452.224 578.177 454.063C575.661 451.167 554.261 450.579 550.115 450.817C530.222 451.961 498.473 456.584 480.97 465.948C480.12 461.373 480.55 439.62 480.585 434.286L481.25 362.397Z" fill="#3086EC"/>
<path d="M396.429 593.579C377.019 577.434 356.908 562.156 349.568 536.749C345.288 521.937 351.176 504.455 367.655 501.884C397.072 497.294 431.759 519.756 454.855 535.53C455.05 543.611 455.069 551.695 454.913 559.777L454.912 598.011L452.44 599.713C450.917 607.035 450.06 612.654 448.831 619.897C447.816 630.705 449.358 639.491 450.598 650.262C451.364 654.897 452.544 661.987 454.419 666.322L454.392 667.418C454.578 679.542 454.263 691.586 454.322 703.685C454.346 707.341 454.631 721.852 453.948 724.693C449.711 725.563 447.604 727.014 443.705 728.177C436.992 730.265 431.492 731.557 424.505 732.984C406.011 736.768 372.661 738.133 367.525 713.886C364.573 699.95 375.501 686.522 385.833 678.752C389.135 676.266 391.929 674.582 394.445 670.939C374.796 664.369 348.38 660.683 335.82 642.344C309.86 604.433 371.753 589.534 396.429 593.579Z" fill="#EF698E"/>
<path d="M452.44 599.713C445.148 596.205 437.423 593.722 430.012 590.492C419.84 586.059 409.359 579.632 400.516 572.891C387.502 562.971 368.917 546.096 367.106 528.776C366.865 526.468 367.139 524.015 368.853 522.276C370.498 520.608 372.94 520.036 375.192 519.843C394.849 518.16 439.572 547.038 454.913 559.777L454.913 598.01L452.44 599.713Z" fill="#F890AD"/>
<path d="M450.598 650.261C450.362 649.998 449.753 649.612 449.434 649.386C423.853 656.887 372.249 653.133 351.856 632.413C350.387 630.925 349.425 626.847 350.089 624.685C352.388 617.203 363.006 615.832 369.525 614.203C394.378 609.078 424.601 612.905 448.831 619.897C447.816 630.704 449.358 639.491 450.598 650.261Z" fill="#F890AD"/>
<path d="M454.322 703.685C434.441 710.671 413.342 720.229 391.24 714.449C386.598 713.237 385.262 707.01 387.919 703.446C402.733 683.559 431.854 674.68 454.392 667.418C454.578 679.542 454.264 691.586 454.322 703.685Z" fill="#F890AD"/>
<path d="M885.785 849.444L886.623 849.377C940.604 844.423 972.689 791.141 994.413 747.3C997.046 741.979 1003.22 730.522 1009.73 729.5C1017.53 728.269 1019.39 739.836 1019.46 745.383C1021.35 798.77 1005.61 852.781 969.138 892.71C936.557 928.376 893.72 950.964 845.097 953.328C844.056 953.371 843.021 953.389 841.986 953.383C842.746 951.124 847.595 946.917 849.444 944.958C873.636 919.376 885.362 884.946 880.862 850.204C882.772 850.093 883.984 850.155 885.785 849.444Z" fill="#EF698E"/>
<path d="M455.381 365.056C463.954 363.742 472.588 362.855 481.25 362.397L480.585 434.286C480.55 439.62 480.12 461.373 480.97 465.948C481.443 470.606 481.467 475.971 481.364 480.683C481.064 494.337 481.82 508.462 481.252 522.079C480.473 532.174 480.703 544.196 480.656 554.441L480.374 608.886L479.795 675.721C479.731 682.138 478.698 714.009 480.728 717.168C479.366 721.087 480.071 732.298 480.269 737.031C480.153 739.67 480.15 744.067 479.253 746.381C471.868 736.168 464.278 734.08 452.692 731.698C453.001 728.581 453.026 727.614 453.948 724.693C454.631 721.852 454.346 707.341 454.322 703.685C454.263 691.586 454.578 679.542 454.392 667.418L454.419 666.322C452.544 661.987 451.364 654.897 450.598 650.261C449.358 639.491 447.816 630.705 448.831 619.897C450.06 612.654 450.917 607.035 452.44 599.713L454.912 598.011L454.913 559.777C455.069 551.695 455.05 543.611 454.855 535.53C455.016 518.671 453.742 495.145 454.634 479.174C455.535 471.007 455.04 448.063 455.07 439.081L455.381 365.056Z" fill="#254A9E"/>
<path d="M452.44 599.713L454.912 598.01C454.88 618.287 455.535 646.526 454.419 666.322C452.544 661.987 451.364 654.897 450.598 650.261C449.358 639.491 447.816 630.705 448.831 619.897C450.06 612.654 450.917 607.035 452.44 599.713Z" fill="#FCB5C9"/>
<path d="M545.037 911.716C547.309 914.14 549.909 916.988 551.907 919.62C574.377 949.225 607.325 965.451 641.812 976.944C640.802 986.398 635.432 1005.16 628.892 1012.19C614.962 1027.19 581.684 1025.26 562.929 1024.81C548.592 1024.46 521.541 1023.06 519.806 1005.02C518.74 993.911 527.413 988.174 533.805 981.304C534.011 970.374 533.637 960.265 535.254 949.385C537.244 935.993 540.775 924.494 545.037 911.716Z" fill="#F890AD"/>
<path d="M775.894 733.976C785.685 728.14 794.521 721.454 804.14 715.747C806.479 719.991 810.716 723.181 813.912 726.873C823.734 738.237 833.224 750.128 841.925 762.374C845.813 767.842 848.562 773.733 854.153 777.804C854.171 777.829 854.19 777.86 854.208 777.884C853.467 780.652 854.924 782.929 856.186 785.311C865.517 802.878 875.388 820.598 879.074 840.376C879.533 842.837 880.445 847.087 881.584 849.322C883.458 850.069 883.201 849.083 885.785 849.444C883.984 850.154 882.772 850.093 880.862 850.203C885.362 884.946 873.636 919.375 849.444 944.958C847.595 946.917 842.746 951.123 841.986 953.383C836.745 955.244 832.673 959.377 828.577 963.088C830.885 951.319 833.371 935.834 834.675 923.913C783.168 930.127 779.415 872.81 767.665 837.761C764.199 827.413 760.329 817.12 756.264 806.993C773.108 824.603 783.928 838.355 791.747 861.819C796.217 875.228 802.162 895.942 815.284 903.064C829.759 910.803 850.338 904.484 857.386 889.189C882.937 833.714 821.119 758.749 775.894 733.976Z" fill="#F890AD"/>
<path d="M480.269 737.031C487.081 742.658 493.587 747.587 494.693 757.323C495.097 760.88 493.929 763.464 495.554 766.22C502.483 769.747 524.785 757.286 529.8 751.953C533.235 752.002 543.276 756.717 547.692 758.045C538.128 777.131 530.505 802.817 528.22 823.972C527.245 832.992 527.362 842.25 526.445 851.042C524.974 849.475 520.52 850.846 518.153 851.25C504.533 853.553 493.051 851.348 479.989 848.177C477.922 846.309 479.415 811.004 478.491 804.997C478.564 804.317 478.474 804.728 478.849 803.919C481.891 797.337 482.504 795.163 482 788.41C492.819 779.415 495.261 767.108 483.363 757.684L479.254 746.381C480.151 744.067 480.153 739.67 480.269 737.031Z" fill="#F890AD"/>
<path d="M745.512 552.456C753.6 551.955 761.603 552.47 768.834 556.632C793.327 570.718 801.617 606.017 787.932 630.288C781.546 641.603 773.31 646.992 761.07 650.531C701.181 657.034 693.349 560.23 745.512 552.456Z" fill="#FEFEFE"/>
<path d="M752.872 568.355C766.912 566.594 777.284 574.357 783.242 586.553C788.685 597.636 789.518 610.427 785.55 622.12C780.125 637.783 766.777 645.351 750.876 639.589C739.364 634.072 727.455 613.499 731.221 601.396L731.931 601.071C737.68 603.738 742.622 604.972 748.273 600.759C750.894 598.836 752.572 595.891 752.89 592.658C753.772 582.904 745.591 578.779 737.172 578.512C742.769 572.531 745.23 570.891 752.872 568.355Z" fill="#6C3145"/>
<path d="M560.084 661.895L560.607 663.23C560.461 663.745 560.361 664.222 560.025 664.675C550.662 677.509 529.025 680.907 515.445 673.205C481.628 653.96 481.821 590.041 522.634 579.782C546.472 573.789 566.708 595.659 570.867 617.007C571.626 620.908 571.543 622.291 569.257 625.402C570.865 638.867 569.115 650.311 560.561 661.289L560.084 661.895Z" fill="#FEFEFE"/>
<path d="M520.259 605.914C542.521 584.892 562.933 600.208 569.256 625.402C570.864 638.866 569.114 650.31 560.561 661.289L560.084 661.895C555.006 665.912 548.629 670.143 541.944 669.702C519.074 668.19 513.591 645.369 513.281 627.447C519.325 630.839 525.749 632.811 531.679 627.582C534.167 625.383 535.629 622.242 535.714 618.924C535.822 615.678 534.593 612.525 532.314 610.211C528.694 606.49 525.103 605.98 520.259 605.914Z" fill="#6C3145"/>
<path d="M626.719 831.644C641.83 831.124 659.679 831.491 674.901 831.651C688.145 839.947 677.748 855.8 668.753 862.872C642.112 883.335 605.374 843.835 626.719 831.644Z" fill="#F890AD"/>
<path d="M680.179 643.581C684.134 643.477 689.786 644.898 690.759 648.914C694.09 662.679 671.864 674.625 662.183 677.693C643.422 683.638 626.369 682.169 609.445 673.596C604.119 670.529 595.491 661.987 602.557 655.178C607.357 650.555 615.746 656.525 620.791 659.005C635.658 666.31 656.244 664.032 669.218 653.672C673.125 650.58 676.119 646.128 680.179 643.581Z" fill="#6C3145"/>
<path d="M634.648 789.995C640.544 789.567 645.994 789.695 652.251 789.542C661.056 789.328 675.739 788.195 674.454 801.433C674.105 805.003 670.645 807.514 667.804 809.314C662.82 810.348 657.738 810.03 652.362 810.055C643.832 810.085 627.349 811.524 628.029 798.641C628.255 794.337 630.937 791.851 634.648 789.995Z" fill="#F890AD"/>
<path d="M813.428 503.867C824.762 480.087 875.596 428.5 904.325 442.053C910.215 444.786 914.728 449.825 916.791 455.986C923.557 476.687 910.264 504.482 898.514 521.276C895.973 524.907 892.844 529.55 889.654 532.61C911.391 527.899 933.66 522.172 954.252 533.904C968.023 541.749 968.329 560.471 959.671 572.182C950.829 584.13 939.3 593.273 926.319 600.387C922.345 602.569 913.711 605.626 910.705 608.368L910.938 609.348C913.32 610.61 917.147 611.394 919.694 612.277C966.976 628.672 960.749 666.347 914.354 676.389C886.139 682.499 867.299 679.487 840.235 671.919C843.358 665.649 845.182 660.567 847.472 654.052C851.709 645.835 854.165 629.835 855.181 620.418L855.457 613.689C855.383 592.345 855.138 588.797 849.371 568.023C847.423 562.086 845.397 556.175 843.29 550.295C837.492 538.45 832.379 529.317 824.658 518.598C822.135 515.032 814.726 506.728 813.428 503.867Z" fill="#EF698E"/>
<path d="M849.371 568.023L850.326 567.663C858.5 564.538 865.976 560.014 874.169 556.922C891.277 550.465 909.597 545.983 927.966 546.121C937.053 546.19 952.599 550.101 943.457 562.013C926.907 583.586 895.318 596.182 869.228 600.859C864.85 601.686 860.429 602.263 855.99 602.589C856.051 606.603 856.259 609.745 855.457 613.688C855.383 592.345 855.139 588.797 849.371 568.023Z" fill="#F890AD"/>
<path d="M824.658 518.598C828.761 514.408 833.047 506.56 836.929 501.632C849.463 485.708 864.078 470.408 882.686 461.705C893.855 456.482 901.509 458.123 899.476 471.996C895.661 498.041 876.753 520.878 857.851 538.121C854.349 541.257 845.501 547.173 843.291 550.295C837.492 538.45 832.379 529.317 824.658 518.598Z" fill="#F890AD"/>
<path d="M847.473 654.052C851.71 645.835 854.165 629.835 855.182 620.418L855.965 621.636C862.621 622.089 869.246 621.465 876.012 622.12C889.618 623.43 903.725 625.567 916.449 630.809C922.29 633.209 932.932 637.495 932.454 645.302C932.332 647.206 930.777 648.792 929.264 649.851C908.005 661.944 882.288 661.932 858.868 657.597C855.016 656.88 850.608 655.613 847.473 654.052Z" fill="#F890AD"/>
<path d="M436.133 817.812C430.735 814.635 426.084 812.045 421.626 807.605C413.276 799.339 408.64 788.042 408.783 776.292C408.874 750.82 426.799 731.324 452.692 731.698C464.278 734.08 471.867 736.168 479.253 746.381L483.363 757.684C495.261 767.108 492.819 779.415 481.999 788.41C482.503 795.163 481.891 797.337 478.848 803.919C478.474 804.727 478.564 804.317 478.491 804.997C470.649 811.806 462.92 818.259 451.694 818.1L452.149 833.169C444.826 829.569 441.05 824.156 436.133 817.812Z" fill="#FCB5C9"/>
<path d="M436.133 817.813C441.14 817.353 446.634 817.825 451.694 818.1L452.149 833.169C444.826 829.569 441.05 824.156 436.133 817.813Z" fill="#F890AD"/>
<path d="M478.491 804.997C479.415 811.004 477.922 846.309 479.989 848.177C479.454 849.818 479.372 854.937 479.379 856.957C479.418 867.477 477.424 876.526 471.007 885.111C463.991 894.259 454.757 899.812 443.469 901.661C419.711 905.562 397.873 889.997 394.334 866.105C393.61 861.225 393.762 855.616 397.178 851.557C401.165 846.824 405.855 846.095 411.669 845.605C427.059 854.673 418.643 862.235 430.362 871.806C433.386 874.279 441.08 872.626 445.031 871.481C455.382 859.768 452.532 848.838 452.15 833.169L451.694 818.1C462.92 818.259 470.649 811.806 478.491 804.997Z" fill="#254A9E"/>
<path d="M460.888 153.882C459.662 146.93 461.335 136.534 465.592 130.906C469.129 126.164 474.472 123.099 480.351 122.44C485.51 121.886 490.938 123.315 494.866 126.729C503.394 134.139 503.405 141.979 504.148 152.012C510.597 151.931 523.751 151.548 529.702 152.373C521.843 152.729 512.87 152.505 504.916 152.458C490.115 151.714 474.471 154.625 461.982 154.262L460.888 153.882Z" fill="#254A9E"/>
</svg>
