<svg width="1254" height="1254" viewBox="0 0 1254 1254" fill="none" xmlns="http://www.w3.org/2000/svg">
<path d="M447.466 529.541C447.613 528.961 447.759 528.38 447.906 527.8C485.775 428.945 598.445 375.159 700.226 385.025C713.157 386.279 725.6 387.615 737.925 391.044C741.519 391.946 744.379 392.632 747.863 393.92C783.664 404.075 815.339 425.292 838.349 454.536C840.339 457.046 844.436 461.964 846.089 464.495C860.527 449.596 891.62 428.668 911.759 446.913C917.551 452.166 919.1 463.974 918.947 471.534C918.169 487.849 909.707 502.882 902.17 516.995C898.753 523.384 896.555 522.038 893.996 530.928C901.919 529.081 918.531 525.787 926.638 525.952C933.477 526.092 947.278 529.456 953.45 532.732C987.145 556.444 946.635 591.509 923.196 602.375C919.112 604.265 914.802 603.971 914.146 608.123C914.93 609.986 916.357 610.896 918.237 611.528C930.93 615.783 944.284 622.598 950.395 635.211C952.905 640.397 952.507 647.531 952.054 653.39C930.624 680.913 904.533 679.481 872.785 679.328C864.256 699.252 845.936 715.19 826.256 723.646C833.237 728.012 834.486 728.49 838.355 735.794L841.527 736.511C862.78 748.549 880.231 762.944 885.399 788.103C886.201 799.394 887.187 809.718 883.115 820.537L882.845 821.094C881.86 825.803 880.776 833.365 879.459 837.467C876.545 844.98 873.44 850.216 868.377 856.59C869.761 867.752 868.64 876.875 864.201 887.174L864.44 887.787C861.69 889.458 859.106 892.171 856.394 894.197C848.722 899.972 840.615 905.305 831.761 909.113C779.697 931.505 721.877 938.908 665.63 940.439C663.065 940.506 646.533 940.727 645.51 940.212C642.228 940.059 638.646 940.077 635.334 940.035C632.694 930.495 630.239 920.906 627.949 911.275L627.355 907.478C624.992 893.995 622.72 880.549 621.569 866.901C621.293 863.631 620.981 860.368 620.35 857.141L620.387 856.682C618.82 840.431 618.348 814.592 619.279 798.243C617.779 794.937 614.258 797.178 611.569 794.184C608.463 786.775 614.987 775.355 615.85 767.187C615.305 767.677 614.742 768.155 614.166 768.614C599.296 780.493 597.863 771.186 587.829 769.385C582.196 768.369 570.92 782.299 558.047 764.732C545.87 771.057 540.783 769.428 531.623 759.748C524.421 760.023 525.212 758.303 519.494 757.415C516.597 753.233 516.054 748.91 516.018 744.042C502.577 739.088 480.355 725.863 472.089 714.192C453.928 729.824 409.349 740.925 385.968 733.008C353.568 722.042 367.309 685.095 392.236 674.184C389.599 672.053 388.845 671.245 386.632 668.655C369.832 665.367 345.775 657.156 335.943 642.675C311.622 606.862 360.597 592.672 385.741 592.964C387.09 592.089 389.025 590.56 390.37 589.558C377.604 575.932 363.015 568.29 354.695 549.616C349.956 541.985 345.751 525.316 349.608 516.511C363.233 485.399 410.89 508.069 430.887 520.209C437.177 524.027 441.469 527.401 447.466 529.541Z" fill="#FEFEFE"/>
<path d="M646.722 469.015C656.476 478.403 666.518 477.836 677.313 470.45C686.173 481.297 695.327 483.045 707.904 476.686C714.106 488.534 721.313 491.456 734.27 488.863C738.078 502.909 745.199 504.434 758.492 503.933C760.262 513.356 761.138 517.253 768.369 523.125C772.943 526.842 783.517 525.035 783.376 528.598C782.862 541.868 785.275 549.854 801.77 554.685C798.77 566.981 800.013 576.428 812.657 582.128C806.368 593.155 807.611 599.78 815.78 609.023C808.689 616.285 809.852 623.412 813.551 631.886C805.426 639.644 802.235 644.977 806.136 656.28C800.68 658.405 793.749 662.281 792.714 667.075C790.044 679.456 794.624 679.334 781.491 682.671C777.406 683.705 767.383 701.279 765.032 705.595C764.322 706.82 763.979 710.61 763.893 711.798C751.157 710.377 745.475 710.598 737.668 722.207C726.193 714.608 713.898 718.631 705.957 729.071C696.184 721.797 682.707 722.275 675.274 732.537C674.778 733.235 674.3 733.951 673.847 734.68C656.042 722.715 640.728 730.779 632.603 749.063C628.984 747.428 626.81 747.55 622.904 747.361C617.05 752.896 618.317 759.588 615.862 767.065C615.856 767.101 615.856 767.144 615.85 767.187C615.305 767.677 614.742 768.155 614.166 768.614C599.296 780.492 597.863 771.185 587.829 769.385C582.196 768.369 570.92 782.299 558.046 764.732C545.87 771.057 540.783 769.428 531.623 759.748C524.421 760.023 525.212 758.303 519.494 757.415C516.597 753.233 516.053 748.91 516.018 744.042C517.173 740.613 517.518 739.407 519.46 736.229C518.367 735.151 508.633 728.618 506.343 727.026C492.706 717.529 481.586 706.195 473.236 691.714C467.798 682.242 464.079 671.882 462.251 661.118C461.714 658.068 460.871 649.753 459.247 648.18C459.99 644.726 459.36 638.572 459.701 634.409C461.107 617.277 462.513 599.126 469.458 583.22C477.34 568.278 481.102 569.773 480.485 551.328C494.511 548.821 500.608 540.028 500.621 525.968C515.658 525.198 521.503 519.492 525.174 505.278C540.531 507.204 548.209 501.665 554.452 487.903C568.107 492.537 577.303 488.638 584.695 476.186C597.603 482.678 605.176 480.692 614.938 470.378C626.345 478.989 635.713 478.009 646.722 469.015Z" fill="#FBB6C8"/>
<path d="M519.46 736.229C528.009 728.985 534.438 725.085 544.788 733.069C554.526 732.12 555.853 724.442 567.775 736.474C578.105 729.175 582.544 730.314 592.876 737.319C604.046 730.002 614.76 733.406 621.453 744.74C621.955 745.603 622.438 746.479 622.904 747.361C617.05 752.896 618.318 759.588 615.862 767.065C615.856 767.101 615.856 767.144 615.85 767.187C615.305 767.677 614.742 768.155 614.166 768.614C599.296 780.493 597.863 771.185 587.829 769.385C582.196 768.369 570.92 782.299 558.047 764.732C545.87 771.057 540.783 769.428 531.623 759.748C524.421 760.023 525.212 758.303 519.494 757.415C516.597 753.233 516.054 748.91 516.018 744.042C517.173 740.613 517.518 739.407 519.46 736.229Z" fill="#FEFEFE"/>
<path d="M744.881 552.405C753.012 551.958 760.311 552.045 767.781 556.023C793.663 569.816 801.482 605.172 788.171 630.3C782.342 641.304 773.084 646.845 761.548 650.439C703.391 658.552 691.739 562.234 744.881 552.405Z" fill="#FEFEFE"/>
<path d="M756.245 567.771C802.033 567.928 796.443 660.346 748.426 638.26C735.341 629.014 730.596 615.574 730.78 599.943C740.019 605.665 752.473 604.057 752.725 591.707C752.822 588.073 751.353 584.573 748.696 582.094C744.832 578.481 741.887 578.523 737.105 578.571C743.491 571.708 747.22 569.302 756.245 567.771Z" fill="#6C3347"/>
<path d="M558.967 662.746L559.997 663.781C557.689 672.304 539.848 677.729 531.617 677.16C519.962 676.346 514.376 673.786 506.32 665.844C486.712 646.52 485.224 607.778 505.75 588.67C522.083 573.361 544.751 576.394 559.233 592.454C566.56 600.581 571.904 614.803 571.36 625.714L570.981 623.687C570.605 625.598 570.444 626.718 570.465 628.659L569.755 628.273C570.403 640.526 568.537 652.245 560.01 661.638C559.667 662.011 559.319 662.379 558.967 662.746Z" fill="#FEFEFE"/>
<path d="M513.623 627.08C516.182 628.745 517.644 629.89 520.745 630.441C527.047 631.978 535.596 627.067 535.901 620.112C536.353 609.8 529.699 606.852 521.554 605.817L521.305 605.14C524.412 600.812 530.748 597.004 535.93 596.25C556.061 593.32 566.85 611.863 569.755 628.274C570.403 640.526 568.537 652.245 560.01 661.638C559.667 662.012 559.32 662.379 558.967 662.746C554.238 666.396 548.657 670.015 542.503 669.653C519.089 668.288 513.636 645.29 513.623 627.08Z" fill="#6C3347"/>
<path d="M680.019 643.569C689.418 643.196 694.739 650.421 689.541 657.934C671.784 683.614 634.403 686.565 609.339 673.456C603.541 670.253 595.314 661.62 602.779 654.982C608.231 650.133 616.26 656.678 621.857 659.44C625.034 660.977 628.427 662.018 631.911 662.538C644.255 664.473 658.65 661.883 668.692 654.119C672.8 650.941 675.948 646.233 680.019 643.569Z" fill="#6C3347"/>
<path d="M847.197 654.835L859.553 658.093C866.675 662.508 878.174 658.675 880.702 668.239C881.376 670.786 882.215 675.654 881.878 678.281C878.621 678.611 876.38 678.256 873.147 677.932C873.147 675.121 873.324 672.898 872.596 670.186L872.7 671.337L872.051 669.084C870.514 672.384 872.393 675.648 872.785 679.328C864.256 699.252 845.936 715.19 826.256 723.646C833.237 728.012 834.486 728.49 838.355 735.794L841.527 736.511C862.78 748.549 880.231 762.944 885.399 788.104C886.201 799.394 887.187 809.718 883.115 820.537L882.845 821.095C881.86 825.803 880.776 833.365 879.459 837.468C876.545 844.981 873.44 850.216 868.377 856.59C869.761 867.752 868.64 876.876 864.201 887.175L864.44 887.787C861.69 889.458 859.106 892.171 856.394 894.198C848.722 899.972 840.615 905.305 831.761 909.113C779.697 931.505 721.877 938.908 665.63 940.439C663.065 940.506 646.533 940.727 645.51 940.212C642.228 940.059 638.646 940.078 635.334 940.035C632.695 930.495 630.239 920.906 627.949 911.275L627.355 907.478C624.992 893.996 622.72 880.549 621.569 866.901C621.293 863.631 620.981 860.368 620.35 857.141L620.387 856.682C618.82 840.431 618.348 814.592 619.279 798.243C617.779 794.937 614.258 797.178 611.569 794.184C608.463 786.775 614.987 775.355 615.85 767.187C615.856 767.144 615.856 767.102 615.862 767.065C618.318 759.589 617.05 752.896 622.904 747.361C626.81 747.551 628.984 747.428 632.603 749.063C633.258 754.182 633.595 758.241 635.756 763.005C642.185 774.866 658.026 775.619 666.892 766.006C680.252 773.151 688.316 773.335 698.97 761.174C711.749 767.714 722.783 767.212 731.435 754.562C744.869 761.101 754.157 757.25 761.34 744.563L768.485 745.108L768.785 745.065C774.694 743.583 780.003 741.973 783.328 736.198C788.538 727.136 785.195 720.401 776.758 715.515C790.528 713.004 795.396 710.561 804.017 699.313C821.309 698.027 831.375 691.519 831.026 672.813C832.465 672.109 833.886 671.368 835.288 670.596C842.88 666.408 844.919 662.71 847.197 654.835Z" fill="#CD2C30"/>
<path d="M847.197 654.835L859.553 658.093C866.675 662.508 878.174 658.675 880.702 668.239C881.376 670.786 882.215 675.654 881.878 678.281C878.621 678.611 876.38 678.256 873.147 677.932C873.147 675.121 873.324 672.898 872.596 670.186L872.7 671.337L872.051 669.084C870.514 672.384 872.393 675.648 872.785 679.328C864.256 699.252 845.936 715.19 826.256 723.646C833.237 728.012 834.486 728.49 838.355 735.794L841.527 736.511C862.78 748.549 880.231 762.944 885.399 788.104C886.201 799.394 887.187 809.718 883.115 820.537L882.845 821.095C881.86 825.803 880.776 833.365 879.459 837.468C876.545 844.981 873.44 850.216 868.377 856.59C869.761 867.752 868.64 876.876 864.201 887.175L864.44 887.787C861.69 889.458 859.106 892.171 856.394 894.198C848.722 899.972 840.615 905.305 831.761 909.113C779.697 931.505 721.877 938.908 665.63 940.439C663.065 940.506 646.533 940.727 645.51 940.212C647.231 940.206 647.99 940.402 649.466 939.569C647.788 930.918 644.659 922.621 643.122 913.687L642.951 912.646L641.897 908.397C653.25 907.203 669.917 907.509 682.108 907.117C721.613 905.844 754.825 898.906 792.904 888.932L797.907 892.434C807.208 898.153 812.124 901.215 822.307 904.588C827.818 900.357 830.463 896.249 823.207 891.669C830.23 889.097 836.31 884.493 841.858 879.6L842.562 879.141C853.877 885.999 860.509 872.614 862.744 863.607C846.689 841.056 813.061 824.646 786.022 821.597C788.991 809.84 792.763 805.309 799.107 795.2C799.701 794.251 799.131 793.461 798.69 792.647L797.239 792.488C793.982 793.767 789.775 800.197 787.785 803.136C767.444 784.166 767.947 771.455 771.155 746.957C771.271 746.032 769.722 745.573 768.785 745.065C774.694 743.583 780.003 741.973 783.328 736.198C788.538 727.136 785.195 720.401 776.758 715.515C790.528 713.004 795.396 710.561 804.017 699.313C821.309 698.027 831.375 691.519 831.026 672.813C832.465 672.109 833.886 671.368 835.288 670.596C842.88 666.408 844.919 662.71 847.197 654.835Z" fill="#EC4145"/>
<path d="M641.897 908.397C653.25 907.203 669.917 907.509 682.108 907.117C721.613 905.843 754.825 898.906 792.904 888.932L797.907 892.434C792.316 895.655 782.911 898.122 776.494 899.782C740.436 909.125 702.797 913.069 665.612 913.785C660.401 913.889 647.414 914.342 642.951 912.646L641.897 908.397Z" fill="#CD2C30"/>
<path d="M882.845 821.094C876.906 821.437 872.063 812.981 867.452 810.642C857.061 805.389 847.081 799.847 835.447 797.98C831.338 797.325 820.482 796.602 818.057 793.504L818.474 792.353C818.792 792.163 820.053 791.379 820.439 791.336C838.196 789.579 877.573 802.321 883.115 820.537L882.845 821.094Z" fill="#CD2C30"/>
<path d="M838.355 735.794L841.527 736.511C838.245 742.42 825.717 746.375 819.839 751.586C816.086 754.917 804.36 769.839 800.215 768.571C799.823 764.848 804.562 759.601 806.619 756.533C812.185 748.261 828.522 737.093 838.355 735.794Z" fill="#CD2C30"/>
<path d="M632.48 809.54C678.752 807.777 724.975 804.734 769.502 790.369C773.592 798.292 777.774 802.836 784.981 808.23C783.07 812.816 782.415 816.343 781.031 820.948C778.582 829.091 775.729 830.31 776.837 839.011C742.585 847.387 707.653 852.689 672.457 854.851C659.832 855.659 645.859 855.065 634.219 855.867C632.658 841.037 632.511 824.383 632.48 809.54Z" fill="#EC4145"/>
<path d="M634.758 861.568C665.74 862.553 697.519 859.027 728.232 855.194C738.06 853.969 749.877 850.467 759.497 849.836C758.817 860.992 784.185 882.551 792.904 888.932C754.825 898.906 721.613 905.843 682.107 907.117C669.916 907.509 653.249 907.203 641.897 908.397C638.572 892.942 636.191 877.31 634.758 861.568Z" fill="#EC4145"/>
<path d="M761.34 744.562L768.485 745.107C758.621 751.671 764.279 775.815 767.102 785.226C723.175 796.915 677.968 803.117 632.511 803.681L632.805 797.735L632.064 796.419C627.435 796.131 624.924 796.253 620.32 796.823C619.738 797.478 619.591 797.484 619.279 798.243C617.779 794.937 614.258 797.178 611.569 794.184C608.463 786.775 614.987 775.355 615.85 767.187C615.856 767.144 615.856 767.101 615.862 767.065C618.318 759.588 617.05 752.896 622.904 747.361C626.81 747.551 628.984 747.428 632.603 749.063C633.258 754.182 633.595 758.241 635.756 763.005C642.185 774.865 658.026 775.619 666.892 766.005C680.252 773.151 688.316 773.335 698.97 761.174C711.749 767.714 722.783 767.212 731.435 754.561C744.869 761.101 754.157 757.249 761.34 744.562Z" fill="#EC4145"/>
<path d="M622.904 747.361C626.81 747.551 628.984 747.428 632.603 749.063C633.258 754.182 633.595 758.242 635.756 763.005C633.405 768.443 643.587 793.553 635.615 795.519C635.315 795.592 633.809 796.168 633.386 796.315L632.805 797.735L632.064 796.419C627.435 796.131 624.924 796.253 620.32 796.823C619.738 797.478 619.591 797.484 619.279 798.243C617.779 794.937 614.258 797.178 611.569 794.184C608.463 786.775 614.987 775.355 615.85 767.187C615.856 767.144 615.856 767.102 615.862 767.065C618.318 759.589 617.05 752.896 622.904 747.361Z" fill="#CFCECE"/>
<path d="M621.079 781.203L630.343 781.319L630.735 788.685L621.018 788.63L621.079 781.203Z" fill="#FEFEFE"/>
<path d="M768.51 846.67C772.037 846.046 776.512 844.889 780.082 844.068L779.482 846.009C794.863 851.526 810.453 857.361 824.205 866.313C827.836 868.677 840.211 876.343 841.858 879.6C836.31 884.492 830.23 889.097 823.207 891.669C830.463 896.249 827.817 900.357 822.307 904.588C812.124 901.214 807.207 898.153 797.906 892.434L792.904 888.932C784.185 882.551 758.817 860.992 759.497 849.836C761.78 846.493 764.45 844.35 768.51 846.67Z" fill="#FBB6C8"/>
<path d="M768.51 846.67C772.037 846.046 776.512 844.889 780.082 844.068L779.482 846.009C778.735 848.746 777.382 854.336 776.194 856.577C785.305 869.479 808.107 887.321 823.207 891.669C830.463 896.249 827.817 900.357 822.307 904.588C812.124 901.214 807.207 898.153 797.906 892.434L792.904 888.932C784.185 882.551 758.817 860.992 759.497 849.836C761.78 846.493 764.45 844.35 768.51 846.67Z" fill="#FEFEFE"/>
<path d="M768.51 846.67C772.037 846.046 776.513 844.889 780.082 844.068L779.482 846.009C778.735 848.746 777.382 854.336 776.194 856.577C773.733 853.21 771.1 849.946 768.51 846.67Z" fill="#EC4145"/>
<path d="M619.279 798.243C619.591 797.484 619.738 797.478 620.32 796.823C624.924 796.253 627.435 796.131 632.064 796.418L632.805 797.735L632.511 803.68L632.48 809.54C632.511 824.382 632.658 841.037 634.219 855.867L634.758 861.568C636.191 877.31 638.573 892.942 641.897 908.397L642.951 912.646L643.122 913.687C644.659 922.621 647.788 930.917 649.465 939.569C647.99 940.402 647.231 940.206 645.51 940.212C642.228 940.059 638.646 940.077 635.333 940.035C632.694 930.495 630.239 920.906 627.949 911.275L627.355 907.478C624.992 893.995 622.72 880.549 621.569 866.901C621.293 863.631 620.981 860.368 620.35 857.141L620.387 856.681C618.82 840.431 618.348 814.592 619.279 798.243Z" fill="#FEFEFE"/>
<path d="M783.487 837.804C806.815 842.041 832.422 853.957 847.528 872.614C845.991 874.677 844.197 877.218 842.562 879.141L841.858 879.6C840.211 876.343 827.836 868.677 824.205 866.313C810.452 857.361 794.863 851.526 779.482 846.009L780.082 844.068C781.215 841.986 782.378 839.892 783.487 837.804Z" fill="#F490AB"/>
<path d="M846.089 464.495C860.527 449.596 891.62 428.668 911.758 446.913C917.551 452.166 919.1 463.974 918.947 471.534C918.169 487.849 909.707 502.882 902.17 516.995C898.753 523.384 896.555 522.038 893.995 530.928C901.919 529.081 918.53 525.787 926.637 525.952C933.477 526.092 947.278 529.456 953.45 532.732C987.145 556.444 946.635 591.509 923.196 602.375C919.112 604.265 914.801 603.971 914.146 608.123C914.93 609.987 916.357 610.896 918.237 611.528C930.93 615.783 944.284 622.598 950.395 635.211C952.905 640.397 952.507 647.531 952.054 653.39C930.623 680.913 904.533 679.481 872.785 679.328C872.393 675.648 870.513 672.384 872.05 669.084L872.699 671.337L872.595 670.186C873.324 672.898 873.146 675.121 873.146 677.932C876.379 678.256 878.62 678.611 881.878 678.281C882.215 675.654 881.376 670.786 880.702 668.239C878.173 658.674 866.674 662.508 859.553 658.093L847.197 654.835C847.705 648.027 847.099 646.686 844.882 640.195C855.273 634.299 855.702 627.643 856.375 616.823C854.912 610.38 854.287 608.78 850.424 603.434C850.185 603.158 849.395 601.979 849.573 601.643C856.332 588.976 856.308 579.058 844.809 569.364C842.323 567.843 842.029 567.594 843.033 564.475C844.429 560.108 844.95 557.447 844.797 552.814C842.617 539.359 838.851 541.443 830.169 533.542C830.193 533.567 830.573 530.587 830.689 530.014C832.195 522.468 830.977 519.762 828.032 512.944C836.01 502.905 844.19 493.86 852.101 484.047C851.103 475.977 849.573 471.71 846.089 464.495Z" fill="#ED6A8F"/>
<path d="M844.809 569.364L845.617 569.112C853.926 566.444 862.578 561.592 870.973 558.197C885.191 552.447 898.355 549.166 913.461 546.598C921.598 544.721 955.165 544.45 944.229 560.68C930.391 581.217 902.647 592.247 879.576 598.64C869.81 601.344 859.945 601.507 850.424 603.434C850.185 603.158 849.395 601.979 849.573 601.643C856.333 588.976 856.308 579.058 844.809 569.364Z" fill="#F490AB"/>
<path d="M852.101 484.047C858.102 478.11 864.335 473.278 871.334 468.09C876.832 464.014 892.856 454.623 898.588 461.919C900.694 464.597 899.408 474.294 898.765 477.741C891.007 506.583 868.977 530.584 845.77 548.404C844.717 549.215 844.827 551.51 844.797 552.814C842.617 539.359 838.851 541.443 830.169 533.542C830.193 533.567 830.573 530.587 830.689 530.014C832.195 522.468 830.977 519.762 828.032 512.943C836.01 502.905 844.19 493.86 852.101 484.047Z" fill="#F490AB"/>
<path d="M856.376 616.823L857.037 621.067C862.511 622.12 869.436 621.152 875.406 621.918C893.812 624.275 917.71 626.094 931.291 640.116C934.769 643.704 931.291 649.055 927.495 651.015C911.434 659.305 893.683 661.118 875.859 659.869C870.557 659.538 864.011 658.252 859.553 658.093L847.197 654.835C847.705 648.027 847.099 646.686 844.883 640.195C855.273 634.299 855.702 627.643 856.376 616.823Z" fill="#F490AB"/>
<path d="M390.37 589.558C377.604 575.932 363.015 568.29 354.695 549.616C349.956 541.985 345.751 525.316 349.608 516.511C363.233 485.399 410.89 508.069 430.887 520.209C437.177 524.027 441.469 527.401 447.466 529.541C446.056 537.176 442.846 542.953 441.207 550C437.871 559.7 433.385 581.459 433.496 592.097C433.207 600.113 432.763 608.504 432.986 616.487C433.787 626.743 435.475 642.718 438.831 652.27C440.359 657.707 442.214 665.22 444.552 670.204C449.274 681.746 453.6 688.684 460.186 699.276C463.218 703.024 469.537 710.476 472.089 714.192C453.928 729.824 409.349 740.925 385.968 733.008C353.568 722.042 367.309 685.096 392.236 674.184C389.599 672.053 388.845 671.245 386.632 668.655C369.832 665.367 345.775 657.156 335.943 642.675C311.622 606.863 360.597 592.672 385.741 592.964C387.09 592.089 389.025 590.56 390.37 589.558Z" fill="#ED6A8F"/>
<path d="M433.496 592.097C431.49 591.211 429.489 590.314 427.493 589.404C406.434 579.675 377.068 558.244 368.904 535.149C363.26 519.184 373.384 518.091 385.994 521.169C406.994 526.294 423.444 538.415 441.207 550C437.871 559.7 433.385 581.459 433.496 592.097Z" fill="#F490AB"/>
<path d="M438.831 652.27C430.292 652.594 421.924 653.048 412.725 652.607C394.51 651.48 366.348 646.931 352.867 633.38C342.093 619.665 363.638 615.121 371.812 613.591C393.844 609.464 411.63 612.136 432.986 616.487C433.787 626.743 435.475 642.718 438.831 652.27Z" fill="#F490AB"/>
<path d="M444.552 670.204C449.274 681.746 453.6 688.684 460.186 699.277C459.767 699.534 459.345 699.785 458.922 700.036C439.416 711.553 415.277 718.974 392.643 714.792C380.571 712.564 388.958 700.593 394.185 696.044C408.728 683.375 426.796 676.817 444.552 670.204Z" fill="#F490AB"/>
<path d="M447.465 529.541C447.612 528.961 447.759 528.38 447.906 527.8C485.775 428.945 598.445 375.159 700.225 385.025C713.157 386.279 725.599 387.615 737.925 391.044C741.519 391.946 744.379 392.632 747.863 393.92C745.401 396.67 739.003 399.746 735.482 401.525C724.981 406.835 717.658 414.388 710.42 423.543C709.245 425.03 706.348 429.267 705.112 430.302C702.13 430.875 700.826 431.104 698.009 432.11L693.747 434.304C682.512 421.245 668.667 420.617 655.772 432.211C651.345 427.264 647.249 423.485 640.079 423.015C634.776 422.714 629.578 424.573 625.671 428.169C624.318 429.429 622.989 430.72 621.685 432.038C608.25 422.341 596.32 423.007 586.102 437.095C585.565 437.839 585.045 438.596 584.54 439.362C571.712 431.076 558.868 433.257 550.431 446.425C549.178 448.402 548.018 450.438 546.957 452.524C529.951 444.541 518.43 453.917 514.011 470.444C494.476 467.508 483.839 477.373 484.795 497.145C469.793 498.019 461.956 507.083 465.937 522.15C450.379 528.79 447.309 539.386 453.865 554.367C440.417 562.865 440.392 573.842 448.342 586.299C438.128 595.885 437.745 606.058 447.833 616.144C448.187 616.493 448.544 616.842 448.904 617.185C439.975 630.772 445.169 641.836 459.247 648.18C460.871 649.753 461.714 658.068 462.251 661.118C464.079 671.882 467.798 682.242 473.236 691.714C481.586 706.195 492.706 717.529 506.343 727.026C508.633 728.618 518.367 735.151 519.46 736.229C517.518 739.407 517.173 740.613 516.018 744.042C502.577 739.088 480.355 725.863 472.089 714.192C469.537 710.475 463.218 703.024 460.186 699.276C453.6 688.684 449.274 681.746 444.552 670.204C442.214 665.22 440.359 657.707 438.831 652.27C435.475 642.718 433.787 626.743 432.986 616.487C432.763 608.504 433.207 600.112 433.496 592.097C433.385 581.459 437.871 559.7 441.207 550C442.846 542.953 446.056 537.176 447.465 529.541Z" fill="#EC4145"/>
<path d="M737.925 391.044C741.519 391.946 744.379 392.632 747.863 393.92C745.401 396.67 739.003 399.746 735.482 401.525C724.981 406.836 717.658 414.388 710.42 423.543C709.245 425.03 706.349 429.267 705.112 430.302C702.13 430.875 700.826 431.104 698.009 432.11C695.431 424.82 721.307 401.88 728.269 398.597C731.061 397.281 736.743 393.771 737.925 391.044Z" fill="#CD2C30"/>
<path d="M747.863 393.92C783.664 404.075 815.339 425.292 838.349 454.536C840.339 457.046 844.436 461.964 846.089 464.495C849.573 471.71 851.104 475.977 852.102 484.047C844.191 493.861 836.01 502.905 828.032 512.944C823.593 507.389 818.302 504.27 811.292 503.303C810.581 485.06 805.107 476.834 785.777 476.679L785.642 475.14C785.507 473.435 785.477 472.104 785.018 470.413C783.646 465.225 780.18 460.84 775.453 458.305C768.889 454.833 762.234 454.961 755.37 457.125C749.443 441.742 740.57 437.276 724.877 442.476C719.77 432.811 715.821 430.958 705.112 430.302C706.349 429.267 709.245 425.03 710.421 423.543C717.658 414.388 724.981 406.835 735.482 401.525C739.003 399.746 745.402 396.67 747.863 393.92Z" fill="#EC4145"/>
<path d="M885.399 788.103L886.311 788.091C898.49 787.871 915.665 780.413 925.009 772.741C929.178 769.324 934.708 763.421 938.522 759.405C946.611 750.71 954.013 741.403 960.669 731.575C970.846 716.268 978.793 701.248 991.364 687.294C999.012 678.789 1008.36 671.019 1020.58 670.272C1045.46 669.494 1048.38 699.717 1051.19 717.903C1058.72 753.857 1059.61 789.206 1054.56 825.509C1053.94 830.065 1051.85 835.471 1050.92 840.064C1043.85 874.5 1024.17 909.609 999.428 934.53C958.643 974.954 903.798 998.026 846.383 998.914C840.688 998.969 822.429 994.652 821.235 998.155C815.914 1013.77 810.857 1025.84 791.091 1029.57C767.383 1034.03 732.916 1036.77 710.169 1025.45C705.087 1022.88 704.04 1017.11 703.379 1015.24C699.368 1003.96 715.098 989.637 713.659 986.643C708.32 986.013 700.856 986.564 694.978 986.392C679.768 985.951 657.523 982.369 642.908 977.495C639.197 981.586 638.279 1000.06 632.345 1008.16C628.482 1014.49 618.097 1021.78 610.667 1022.83C594.889 1025 580.351 1025.79 564.29 1024.91C549.948 1024.12 523.396 1024.99 519.798 1006.08C517.608 994.579 526.775 988.774 532.764 980.581C533.601 966.07 532.766 959.971 535.43 944.131C521.406 941.051 520.333 932.43 522.137 920.141C522.029 919.29 516.89 909.413 515.844 904.943C521.977 912.677 527.61 904.374 532.579 899.31L535.105 896.243C546.359 896.169 568.238 903.217 581.007 904.135C590.699 904.839 600.384 906.088 610.32 906.401C614.215 906.523 624.03 906.835 627.355 907.478L627.949 911.275C630.239 920.906 632.694 930.495 635.333 940.035C638.646 940.077 642.228 940.059 645.51 940.212C646.532 940.727 663.065 940.506 665.63 940.439C721.877 938.908 779.697 931.505 831.761 909.113C840.615 905.305 848.722 899.972 856.394 894.197C859.106 892.171 861.69 889.458 864.439 887.787L864.201 887.174C868.64 876.875 869.76 867.752 868.377 856.59C873.44 850.216 876.545 844.98 879.459 837.467C880.776 833.365 881.86 825.803 882.845 821.094L883.115 820.537C887.187 809.718 886.201 799.394 885.399 788.103Z" fill="#FBB6C8"/>
<path d="M868.377 856.59C873.44 850.216 876.545 844.981 879.459 837.468C879.839 841.098 879.661 845.47 881.253 848.587C883.249 849.793 883.403 849.34 886.182 849.328C883.886 849.824 882.582 849.634 881.351 851.03C881.657 853.932 882.49 858.108 882.539 860.6C883.109 887.646 872.92 916.828 855.665 937.665C853.669 940.071 842.28 952.152 842.017 953.34C837.118 954.712 832.551 959.335 828.662 962.721C830.683 952.232 831.944 943.978 832.918 933.263C826.526 937.732 813.3 942.312 805.475 945.252C784.442 953.309 762.681 959.328 740.497 963.223C706.171 969.242 647.684 970.981 613.603 964.858C612.997 964.747 612.384 964.637 611.781 964.515C618.262 968.868 634.886 974.238 642.908 977.496C639.197 981.586 638.279 1000.06 632.345 1008.16C628.482 1014.49 618.097 1021.78 610.667 1022.83C594.889 1025 580.351 1025.79 564.29 1024.91C549.948 1024.12 523.396 1024.99 519.798 1006.08C517.608 994.579 526.775 988.774 532.764 980.581C533.601 966.07 532.766 959.971 535.43 944.131C521.406 941.051 520.333 932.43 522.137 920.141C522.029 919.29 516.89 909.413 515.844 904.944C521.977 912.677 527.61 904.374 532.579 899.31L535.105 896.243C546.359 896.169 568.238 903.217 581.007 904.135C590.699 904.839 600.384 906.089 610.32 906.401C614.215 906.523 624.03 906.836 627.355 907.478L627.949 911.275C630.239 920.906 632.694 930.495 635.333 940.035C638.646 940.078 642.228 940.059 645.51 940.212C646.532 940.727 663.065 940.506 665.63 940.439C721.877 938.908 779.697 931.505 831.761 909.113C840.615 905.305 848.722 899.972 856.394 894.198C859.106 892.171 861.69 889.458 864.439 887.787L864.201 887.174C868.64 876.875 869.76 867.752 868.377 856.59Z" fill="#F490AB"/>
<path d="M645.51 940.212C646.532 940.726 663.065 940.506 665.63 940.439C721.877 938.908 779.697 931.505 831.761 909.113C840.615 905.305 848.722 899.971 856.394 894.197C859.106 892.171 861.69 889.458 864.439 887.787C866.919 891.601 868.364 896.359 867.44 900.921C865.97 908.176 859.627 913.118 853.638 916.779C776.268 964.104 635.86 968.335 548.833 946.868C544.66 945.839 539.698 943.898 535.43 944.131C521.406 941.051 520.333 932.43 522.137 920.141C522.029 919.29 516.89 909.413 515.844 904.943C521.977 912.677 527.61 904.374 532.579 899.31L535.105 896.243C546.359 896.169 568.238 903.217 581.007 904.135C590.699 904.839 600.384 906.088 610.32 906.401C614.215 906.523 624.03 906.835 627.355 907.478L627.949 911.275C630.239 920.906 632.694 930.495 635.333 940.035C638.646 940.077 642.228 940.059 645.51 940.212Z" fill="#CD2C30"/>
<path d="M535.105 896.243C546.359 896.169 568.238 903.217 581.007 904.135C590.699 904.839 600.384 906.088 610.32 906.401C614.215 906.523 624.03 906.835 627.355 907.478L627.949 911.275C630.239 920.906 632.694 930.495 635.333 940.035C626.547 940.071 619.652 938.981 611.051 938.259C579.512 935.608 552 930.611 522.137 920.141C522.029 919.29 516.89 909.413 515.844 904.943C521.977 912.677 527.61 904.374 532.579 899.31L535.105 896.243Z" fill="#EC4145"/>
<path d="M535.105 896.243C546.359 896.169 568.238 903.217 581.007 904.135C590.699 904.839 600.384 906.088 610.32 906.401C614.215 906.523 624.03 906.835 627.355 907.478L627.949 911.275L627.582 912.805C617.625 915.781 538.815 905.862 532.579 899.31L535.105 896.243Z" fill="#CD2C30"/>
<path d="M886.182 849.328C949.348 842.501 974.63 782.489 1001.21 735.739C1004.26 731.643 1011.11 725.391 1015.52 731.441C1019.39 736.749 1019.37 743.595 1019.52 749.7C1021.18 815.792 994.199 879.906 939.771 919.063C912.671 938.565 875.914 954.05 842.017 953.34C842.28 952.152 853.669 940.071 855.665 937.665C872.92 916.828 883.109 887.646 882.539 860.6C882.49 858.108 881.657 853.932 881.351 851.03C882.582 849.634 883.886 849.824 886.182 849.328Z" fill="#ED6A8F"/>
<path d="M519.494 757.415C525.212 758.303 524.421 760.023 531.623 759.748C540.783 769.428 545.87 771.057 558.047 764.732C570.92 782.299 582.196 768.369 587.829 769.385C597.863 771.186 599.296 780.493 614.166 768.614C614.742 768.155 615.305 767.677 615.85 767.187C614.987 775.355 608.462 786.775 611.569 794.184C614.258 797.178 617.779 794.937 619.279 798.243C618.348 814.592 618.82 840.431 620.387 856.682L620.35 857.141C620.981 860.368 621.293 863.631 621.569 866.901C622.72 880.549 624.992 893.995 627.355 907.478C624.03 906.835 614.215 906.523 610.32 906.401C600.384 906.089 590.7 904.839 581.007 904.135C568.238 903.217 546.359 896.169 535.105 896.243L532.579 899.31C527.61 904.374 521.977 912.677 515.844 904.944C515.108 903.039 515.017 901.49 514.751 899.476C514.365 896.077 514.504 892.526 512.599 890.175C508.428 890.609 506.392 889.911 503.486 887.015C501.527 888.485 497.941 891.375 495.93 892.391C460.2 918.433 413.778 887.554 446.039 843.254C447.158 841.147 449.997 837.516 451.507 835.453C444.193 827.248 450.198 817.488 460.524 817.421C463.763 803.044 475.906 790.351 490.291 786.885C490.466 786.707 492.788 785.164 493.157 784.913C502.436 770.818 502.692 766.587 519.494 757.415Z" fill="#CD2C30"/>
<path d="M519.494 757.415C525.212 758.303 524.421 760.023 531.623 759.748C540.783 769.428 545.87 771.057 558.047 764.732C570.92 782.299 582.196 768.369 587.829 769.385C597.863 771.186 599.296 780.493 614.166 768.614C614.742 768.155 615.305 767.677 615.85 767.187C614.987 775.355 608.463 786.775 611.569 794.184C614.258 797.178 617.779 794.937 619.279 798.243C618.348 814.592 618.82 840.431 620.387 856.682C617.185 855.279 598.619 854.471 593.586 853.981C583.484 853.032 573.412 851.777 563.384 850.234C546.599 847.522 532.317 843.542 516.151 838.619C511.336 822.54 514.589 808.573 523.989 794.869C546.578 803.485 571.591 806.816 595.59 807.752C598.815 807.875 616.083 809.565 618.06 808.34L618.146 804.734C617.191 803.252 615.936 803.417 613.554 803.191C605.891 802.462 594.075 802.229 586.862 801.482C574.996 800.258 534.419 795.176 525.378 790.008C522.046 785.679 529.62 769.404 529.424 761.774L528.715 761.609C523.001 768.436 514.846 793.449 511.78 802.768C506.79 798.047 499.267 787.038 493.157 784.913C502.436 770.818 502.692 766.587 519.494 757.415Z" fill="#EC4145"/>
<path d="M553.624 855.163L554.471 855.206C565.114 855.83 613.009 864.017 619.628 860.313C620.154 858.806 620.179 858.727 620.35 857.141C620.981 860.368 621.293 863.631 621.569 866.901C622.72 880.549 624.992 893.995 627.355 907.478C624.03 906.835 614.215 906.523 610.32 906.401C600.384 906.088 590.7 904.839 581.007 904.135C568.238 903.217 546.359 896.169 535.105 896.243C541.855 888.791 555.299 870.783 556.155 859.67C556.298 857.82 554.88 856.455 553.624 855.163Z" fill="#EC4145"/>
<path d="M460.524 817.421C463.763 803.044 475.906 790.351 490.291 786.885C492.22 792.01 505.39 804.348 510.093 809.063C507.418 822.582 501.914 849.248 501.081 862.333C491.664 854.024 481.722 843.548 473.421 834.075C469.088 829.128 464.871 822.582 460.524 817.421Z" fill="#EC4145"/>
<path d="M515.854 844.05C529.755 848.618 537.297 850.834 551.284 854.226L553.624 855.163C554.88 856.455 556.298 857.821 556.155 859.67C555.299 870.783 541.855 888.791 535.105 896.243L532.579 899.31C527.61 904.374 521.977 912.677 515.844 904.944C515.108 903.039 515.017 901.49 514.751 899.476C514.365 896.077 514.504 892.526 512.599 890.175L511.987 889.838C511.487 888.742 511.685 889.348 511.471 888.295C508.208 872.375 509.14 858.972 515.854 844.05Z" fill="#EC4145"/>
<path d="M514.751 899.476C521.475 891.926 529.364 884.18 534.802 875.773C538.53 870.005 541.29 862.413 545.152 856.682C546.514 854.655 548.866 854.594 551.284 854.226L553.624 855.163C554.88 856.455 556.298 857.821 556.155 859.67C555.299 870.783 541.855 888.791 535.105 896.243L532.579 899.31C527.61 904.374 521.977 912.677 515.844 904.944C515.108 903.039 515.017 901.49 514.751 899.476Z" fill="#FEFEFE"/>
<path d="M446.039 843.254C452.3 847.295 461.714 862.309 467.332 868.175C473.706 874.83 480.384 880.439 487.584 886.195C489.476 887.707 494.521 891.087 495.93 892.391C460.2 918.433 413.778 887.554 446.039 843.254Z" fill="#FBB6C8"/>
<path d="M451.507 835.453C464.625 849.744 476.229 865.37 491.899 877.298C494.372 879.178 502.271 884.609 503.486 887.015C501.527 888.485 497.941 891.375 495.93 892.391C494.521 891.087 489.476 887.707 487.584 886.195C480.384 880.439 473.706 874.83 467.332 868.174C461.714 862.309 452.3 847.295 446.039 843.254C447.158 841.147 449.997 837.516 451.507 835.453Z" fill="#F490AB"/>
</svg>
